<mxfile host="app.diagrams.net" modified="2023-07-19T16:15:24.024Z" agent="Mozilla/5.0 (Macintosh; Intel Mac OS X 10_15_7) AppleWebKit/537.36 (KHTML, like Gecko) Chrome/114.0.0.0 Safari/537.36" etag="duk0USQInEiiJKyF5T-u" version="21.3.3" type="github">
  <diagram name="第 1 页" id="XHsyQk1Ajmoq5cy0WuqM">
    <mxGraphModel dx="2212" dy="739" grid="1" gridSize="10" guides="1" tooltips="1" connect="1" arrows="1" fold="1" page="1" pageScale="1" pageWidth="827" pageHeight="1169" math="0" shadow="0">
      <root>
        <mxCell id="0" />
        <mxCell id="1" parent="0" />
        <mxCell id="JanNo0E4OkqzpQ1DrJZF-65" value="" style="rounded=0;whiteSpace=wrap;html=1;dashed=1;dashPattern=8 8;strokeColor=#FF0000;strokeWidth=3;" parent="1" vertex="1">
          <mxGeometry x="-280" y="30" width="1170" height="720" as="geometry" />
        </mxCell>
        <mxCell id="1XgvR0CaCUdwYxR7jsRi-120" value="" style="rounded=0;whiteSpace=wrap;html=1;" vertex="1" parent="1">
          <mxGeometry x="560" y="540" width="320" height="190" as="geometry" />
        </mxCell>
        <mxCell id="1XgvR0CaCUdwYxR7jsRi-119" value="" style="rounded=0;whiteSpace=wrap;html=1;" vertex="1" parent="1">
          <mxGeometry x="560" y="310" width="320" height="175" as="geometry" />
        </mxCell>
        <mxCell id="1XgvR0CaCUdwYxR7jsRi-118" value="" style="rounded=0;whiteSpace=wrap;html=1;" vertex="1" parent="1">
          <mxGeometry x="560" y="85" width="320" height="175" as="geometry" />
        </mxCell>
        <mxCell id="JanNo0E4OkqzpQ1DrJZF-68" value="" style="rounded=0;whiteSpace=wrap;html=1;dashed=1;dashPattern=8 8;" parent="1" vertex="1">
          <mxGeometry x="900" y="30" width="320" height="720" as="geometry" />
        </mxCell>
        <mxCell id="JanNo0E4OkqzpQ1DrJZF-63" value="" style="rounded=0;whiteSpace=wrap;html=1;dashed=1;dashPattern=8 8;" parent="1" vertex="1">
          <mxGeometry x="-700" y="30" width="410" height="720" as="geometry" />
        </mxCell>
        <mxCell id="JanNo0E4OkqzpQ1DrJZF-58" style="edgeStyle=orthogonalEdgeStyle;rounded=0;orthogonalLoop=1;jettySize=auto;html=1;entryX=0;entryY=0.5;entryDx=0;entryDy=0;" parent="1" source="JanNo0E4OkqzpQ1DrJZF-1" target="JanNo0E4OkqzpQ1DrJZF-8" edge="1">
          <mxGeometry relative="1" as="geometry" />
        </mxCell>
        <mxCell id="JanNo0E4OkqzpQ1DrJZF-1" value="&lt;font style=&quot;font-size: 15px;&quot;&gt;直播营收&lt;/font&gt;" style="ellipse;whiteSpace=wrap;html=1;fillColor=#6a00ff;fontColor=#ffffff;strokeColor=#3700CC;" parent="1" vertex="1">
          <mxGeometry x="-690" y="70" width="130" height="90" as="geometry" />
        </mxCell>
        <mxCell id="JanNo0E4OkqzpQ1DrJZF-60" style="edgeStyle=orthogonalEdgeStyle;rounded=0;orthogonalLoop=1;jettySize=auto;html=1;entryX=0;entryY=0.5;entryDx=0;entryDy=0;" parent="1" source="JanNo0E4OkqzpQ1DrJZF-2" target="JanNo0E4OkqzpQ1DrJZF-8" edge="1">
          <mxGeometry relative="1" as="geometry" />
        </mxCell>
        <mxCell id="JanNo0E4OkqzpQ1DrJZF-2" value="&lt;font style=&quot;font-size: 15px;&quot;&gt;直播C端&lt;/font&gt;" style="ellipse;whiteSpace=wrap;html=1;fillColor=#d80073;fontColor=#ffffff;strokeColor=#A50040;" parent="1" vertex="1">
          <mxGeometry x="-690" y="220" width="130" height="90" as="geometry" />
        </mxCell>
        <mxCell id="JanNo0E4OkqzpQ1DrJZF-61" style="edgeStyle=orthogonalEdgeStyle;rounded=0;orthogonalLoop=1;jettySize=auto;html=1;entryX=0;entryY=0.5;entryDx=0;entryDy=0;" parent="1" source="JanNo0E4OkqzpQ1DrJZF-3" target="JanNo0E4OkqzpQ1DrJZF-8" edge="1">
          <mxGeometry relative="1" as="geometry" />
        </mxCell>
        <mxCell id="JanNo0E4OkqzpQ1DrJZF-3" value="&lt;font style=&quot;font-size: 15px;&quot;&gt;弹幕&lt;/font&gt;" style="ellipse;whiteSpace=wrap;html=1;fillColor=#1ba1e2;fontColor=#ffffff;strokeColor=#006EAF;" parent="1" vertex="1">
          <mxGeometry x="-690" y="440" width="130" height="90" as="geometry" />
        </mxCell>
        <mxCell id="JanNo0E4OkqzpQ1DrJZF-62" style="edgeStyle=orthogonalEdgeStyle;rounded=0;orthogonalLoop=1;jettySize=auto;html=1;exitX=1;exitY=0.5;exitDx=0;exitDy=0;entryX=0;entryY=0.5;entryDx=0;entryDy=0;" parent="1" source="JanNo0E4OkqzpQ1DrJZF-5" target="JanNo0E4OkqzpQ1DrJZF-8" edge="1">
          <mxGeometry relative="1" as="geometry" />
        </mxCell>
        <mxCell id="JanNo0E4OkqzpQ1DrJZF-5" value="&lt;font style=&quot;font-size: 15px;&quot;&gt;直播B端&lt;/font&gt;" style="ellipse;whiteSpace=wrap;html=1;fillColor=#0050ef;fontColor=#ffffff;strokeColor=#001DBC;" parent="1" vertex="1">
          <mxGeometry x="-690" y="620" width="130" height="90" as="geometry" />
        </mxCell>
        <mxCell id="JanNo0E4OkqzpQ1DrJZF-6" value="。&lt;br&gt;。&lt;br&gt;。" style="text;strokeColor=none;align=center;fillColor=none;html=1;verticalAlign=middle;whiteSpace=wrap;rounded=0;" parent="1" vertex="1">
          <mxGeometry x="-660" y="350" width="70" height="50" as="geometry" />
        </mxCell>
        <mxCell id="1XgvR0CaCUdwYxR7jsRi-11" style="edgeStyle=orthogonalEdgeStyle;rounded=0;orthogonalLoop=1;jettySize=auto;html=1;entryX=0;entryY=0.5;entryDx=0;entryDy=0;" edge="1" parent="1" source="JanNo0E4OkqzpQ1DrJZF-8" target="JanNo0E4OkqzpQ1DrJZF-15">
          <mxGeometry relative="1" as="geometry" />
        </mxCell>
        <mxCell id="1XgvR0CaCUdwYxR7jsRi-12" style="edgeStyle=orthogonalEdgeStyle;rounded=0;orthogonalLoop=1;jettySize=auto;html=1;entryX=0;entryY=0.5;entryDx=0;entryDy=0;" edge="1" parent="1" source="JanNo0E4OkqzpQ1DrJZF-8" target="1XgvR0CaCUdwYxR7jsRi-5">
          <mxGeometry relative="1" as="geometry" />
        </mxCell>
        <mxCell id="JanNo0E4OkqzpQ1DrJZF-8" value="&lt;span style=&quot;font-size: 15px;&quot;&gt;broadcast-proxy&lt;/span&gt;" style="ellipse;whiteSpace=wrap;html=1;fillColor=#60a917;fontColor=#ffffff;strokeColor=#2D7600;" parent="1" vertex="1">
          <mxGeometry x="-270" y="360" width="130" height="90" as="geometry" />
        </mxCell>
        <mxCell id="1XgvR0CaCUdwYxR7jsRi-128" style="edgeStyle=orthogonalEdgeStyle;rounded=0;orthogonalLoop=1;jettySize=auto;html=1;entryX=0;entryY=0.5;entryDx=0;entryDy=0;" edge="1" parent="1" source="JanNo0E4OkqzpQ1DrJZF-9" target="1XgvR0CaCUdwYxR7jsRi-32">
          <mxGeometry relative="1" as="geometry" />
        </mxCell>
        <mxCell id="1XgvR0CaCUdwYxR7jsRi-129" style="edgeStyle=orthogonalEdgeStyle;rounded=0;orthogonalLoop=1;jettySize=auto;html=1;entryX=0;entryY=0.5;entryDx=0;entryDy=0;" edge="1" parent="1" source="JanNo0E4OkqzpQ1DrJZF-9" target="JanNo0E4OkqzpQ1DrJZF-24">
          <mxGeometry relative="1" as="geometry" />
        </mxCell>
        <mxCell id="1XgvR0CaCUdwYxR7jsRi-130" style="edgeStyle=orthogonalEdgeStyle;rounded=0;orthogonalLoop=1;jettySize=auto;html=1;entryX=0;entryY=0.5;entryDx=0;entryDy=0;" edge="1" parent="1" source="JanNo0E4OkqzpQ1DrJZF-9" target="JanNo0E4OkqzpQ1DrJZF-24">
          <mxGeometry relative="1" as="geometry" />
        </mxCell>
        <mxCell id="JanNo0E4OkqzpQ1DrJZF-9" value="&lt;span style=&quot;font-size: 15px;&quot;&gt;低优broadcast-job&lt;/span&gt;" style="ellipse;whiteSpace=wrap;html=1;fillColor=#b0e3e6;strokeColor=#0e8088;" parent="1" vertex="1">
          <mxGeometry x="270" y="570" width="130" height="90" as="geometry" />
        </mxCell>
        <mxCell id="JanNo0E4OkqzpQ1DrJZF-22" value="" style="group" parent="1" vertex="1" connectable="0">
          <mxGeometry x="-50" y="160" width="280" height="70" as="geometry" />
        </mxCell>
        <mxCell id="JanNo0E4OkqzpQ1DrJZF-20" value="" style="group" parent="JanNo0E4OkqzpQ1DrJZF-22" vertex="1" connectable="0">
          <mxGeometry y="40" width="280" height="30" as="geometry" />
        </mxCell>
        <mxCell id="JanNo0E4OkqzpQ1DrJZF-12" value="" style="rounded=1;whiteSpace=wrap;html=1;fillColor=#e51400;strokeColor=#B20000;fontColor=#ffffff;" parent="JanNo0E4OkqzpQ1DrJZF-20" vertex="1">
          <mxGeometry x="240" width="40" height="30" as="geometry" />
        </mxCell>
        <mxCell id="JanNo0E4OkqzpQ1DrJZF-13" value="" style="rounded=1;whiteSpace=wrap;html=1;fillColor=#e51400;strokeColor=#B20000;fontColor=#ffffff;" parent="JanNo0E4OkqzpQ1DrJZF-20" vertex="1">
          <mxGeometry x="200" width="40" height="30" as="geometry" />
        </mxCell>
        <mxCell id="JanNo0E4OkqzpQ1DrJZF-15" value="" style="rounded=1;whiteSpace=wrap;html=1;fillColor=#e51400;strokeColor=#B20000;fontColor=#ffffff;" parent="JanNo0E4OkqzpQ1DrJZF-20" vertex="1">
          <mxGeometry width="40" height="30" as="geometry" />
        </mxCell>
        <mxCell id="JanNo0E4OkqzpQ1DrJZF-16" value="" style="rounded=1;whiteSpace=wrap;html=1;fillColor=#e51400;strokeColor=#B20000;fontColor=#ffffff;" parent="JanNo0E4OkqzpQ1DrJZF-20" vertex="1">
          <mxGeometry x="40" width="40" height="30" as="geometry" />
        </mxCell>
        <mxCell id="JanNo0E4OkqzpQ1DrJZF-17" value="" style="rounded=1;whiteSpace=wrap;html=1;fillColor=#e51400;strokeColor=#B20000;fontColor=#ffffff;" parent="JanNo0E4OkqzpQ1DrJZF-20" vertex="1">
          <mxGeometry x="80" width="40" height="30" as="geometry" />
        </mxCell>
        <mxCell id="JanNo0E4OkqzpQ1DrJZF-19" value="。。。" style="text;strokeColor=none;align=center;fillColor=none;html=1;verticalAlign=middle;whiteSpace=wrap;rounded=0;" parent="JanNo0E4OkqzpQ1DrJZF-20" vertex="1">
          <mxGeometry x="130" width="60" height="30" as="geometry" />
        </mxCell>
        <mxCell id="JanNo0E4OkqzpQ1DrJZF-21" value="&lt;font color=&quot;#ff3333&quot; style=&quot;font-size: 15px;&quot;&gt;&lt;b&gt;databus高优消息队列&lt;/b&gt;&lt;/font&gt;" style="text;strokeColor=none;align=center;fillColor=none;html=1;verticalAlign=middle;whiteSpace=wrap;rounded=0;" parent="JanNo0E4OkqzpQ1DrJZF-22" vertex="1">
          <mxGeometry x="70" width="150" height="40" as="geometry" />
        </mxCell>
        <mxCell id="JanNo0E4OkqzpQ1DrJZF-24" value="&lt;span style=&quot;font-size: 15px;&quot;&gt;comet-2&lt;/span&gt;" style="ellipse;whiteSpace=wrap;html=1;fillColor=#f8cecc;strokeColor=#b85450;gradientColor=#ea6b66;" parent="1" vertex="1">
          <mxGeometry x="590" y="345" width="130" height="90" as="geometry" />
        </mxCell>
        <mxCell id="JanNo0E4OkqzpQ1DrJZF-25" value="&lt;span style=&quot;font-size: 15px;&quot;&gt;comet-n&lt;/span&gt;" style="ellipse;whiteSpace=wrap;html=1;fillColor=#f8cecc;strokeColor=#b85450;gradientColor=#ea6b66;" parent="1" vertex="1">
          <mxGeometry x="590" y="570" width="130" height="90" as="geometry" />
        </mxCell>
        <mxCell id="JanNo0E4OkqzpQ1DrJZF-26" value="。&lt;br&gt;。&lt;br&gt;。" style="text;strokeColor=none;align=center;fillColor=none;html=1;verticalAlign=middle;whiteSpace=wrap;rounded=0;" parent="1" vertex="1">
          <mxGeometry x="620" y="487.5" width="70" height="50" as="geometry" />
        </mxCell>
        <mxCell id="JanNo0E4OkqzpQ1DrJZF-33" value="" style="group" parent="1" vertex="1" connectable="0">
          <mxGeometry x="970" y="35" width="206" height="55" as="geometry" />
        </mxCell>
        <mxCell id="JanNo0E4OkqzpQ1DrJZF-27" value="" style="sketch=0;pointerEvents=1;shadow=0;dashed=0;html=1;strokeColor=none;fillColor=#505050;labelPosition=center;verticalLabelPosition=bottom;verticalAlign=top;outlineConnect=0;align=center;shape=mxgraph.office.devices.cell_phone_android_standalone;" parent="JanNo0E4OkqzpQ1DrJZF-33" vertex="1">
          <mxGeometry y="5.5" width="24" height="44" as="geometry" />
        </mxCell>
        <mxCell id="JanNo0E4OkqzpQ1DrJZF-28" value="" style="sketch=0;pointerEvents=1;shadow=0;dashed=0;html=1;strokeColor=none;fillColor=#505050;labelPosition=center;verticalLabelPosition=bottom;verticalAlign=top;outlineConnect=0;align=center;shape=mxgraph.office.devices.cell_phone_android_standalone;" parent="JanNo0E4OkqzpQ1DrJZF-33" vertex="1">
          <mxGeometry x="50" y="5.5" width="24" height="44" as="geometry" />
        </mxCell>
        <mxCell id="JanNo0E4OkqzpQ1DrJZF-29" value="" style="shape=image;verticalLabelPosition=bottom;labelBackgroundColor=default;verticalAlign=top;aspect=fixed;imageAspect=0;image=data:image/png,iVBORw0KGgoAAAANSUhEUgAAADgAAAA3CAYAAABZ0InLAAABX2lDQ1BJQ0MgUHJvZmlsZQAAKJFtkMEvA1EQxr9SaaI9tCEOUlQckJTUbi+OVYKkh00R1Gn7ulqyWy/bFXHzR4gbR/EPSBMc3F0kEhInDjRxJNkLzZrXxbaYl8n88mW+9+YN0BZSOdf9AIyyZWZnp2Irq7lYoIYAuhBCHwZVVuEpRclQC75ra9i38Il6Mybu6h+66n09i7xEa0e554G14N/+lugsaBVG9YNSYty0AF+CWNmxuOA94m6ThiLeF1x0+URw3uWLRs9iNk18TRxmJbVA/EAczzfpxSY29G32NYOYPqSVlxao9lBGMY0ZZOjEoEBCEhOYxBzt6H9PsuFJYwscuzCxgSJKsMidIoVDh0Y8jzIYxhEnlpCglMWuf+/Q0wpPgGzQUyOethkGzm0gcuppw4/0nUPgUuGqqf5s1mf7K+uy5HKwCnQcOM7bMhAYBep3jvNedZz6MdB+T177E+KSY3TGIFxYAAAAOGVYSWZNTQAqAAAACAABh2kABAAAAAEAAAAaAAAAAAACoAIABAAAAAEAAAA4oAMABAAAAAEAAAA3AAAAAKzP3bgAABZkSURBVGgFrVppkFXHdf7ufft782ZhZhgYBsQyLAIECDBakGyh1bI2W2X9cBRZDrYri8pJOZVSuVKVqvhHqlJW2VEqVa5U2Yk2UCRFThwsFAmBgnZFQmwalkHAAAJmYfb17Tff133ve28A2YqSnunXfU+fPn2+7tOnT9/3nCsarvVwmRRPRHHX12/Bpluvx8rVS9HUPAOW0YPDPyWPf6pfXF4sTv1sD/Wp1AO+alp1PWhXKbqS5Hieh+GhURzYexiv73gHr778FibGJk37xR/OJQApYfnKxfj9zffjjru+gmgscnGf/6fnAPL/TVw+n8eO7W9iyxP/jkMHOgl+ujwCvIYkfzAWN960AX/26GYsXb5oOucXeHKyWWBkCMhkgFwOKBWtlFAIiESBVA2QroUXjX0B6dVdPJw4dgp//9iT+K/X3q0sN1nClk2wPSxb3o5H/vzhLw6uWIIzcAE4exo4fgw4cwpOz3lgdBTexDicQp7jcBYjtIpkCmiYATS3wJnTBq99KTB/IbzGZsB1rVqf+9PBoiUL8MMfbcbAhUEc3HfEjsNPH6DGS+Dh7z+AFVct+dxiy4xTk3BOHgc+fA/YtwdeN0EVivBKBEymwGqCupPlao5PAH19QOdRA8ghaKd1DrBmHbB+A7BkOTyt8v8iLVh0BR7c/A0c/1EXJidoPUyh+kTbX0uF27nfvvcn30IoTPP5vEkm2HkYeH4L8MIWeAcPwhsaNuBQIixrGCwJzaDUh2BOT442jiZkmObceQTOh+8Dn56Bk0wALbPY5dI+0yVUnq6YPwfd53txuOM4R3IswFg8ij/804eweOmCCufvqvX2wNv+a+Cf/xFeJzd3hmANCHUsV1ivKOeIHGSxXZz8iZAs73QXcHA/MDQIp20u9ytN+nMkLVA0GuFefAf5XEEm6qGdwFZfvXy6Xp8ljI7C6+BKbX2CwGheRT6T18JQ7eJUoelQKaeA7JOm9+cTV9W7wP38H7+Cc7wTzjd/D1i99nOtpk6BZXSSez/ogKtxrlyxCI1NDeWxP6viFQoovbUbxb/7WxQPdaCkZynCDiWTPZbMpJlSNDaqTTzitNz2yVDVX/x+ZmGeyyVNt3TgAEo/fxzem7vgcUJ/V2qYUU9rnG/YzAq2zWulmVfN7mUkeEWC2fUqSlue4D4bnM4hbapXR60i8cMEBWz3JN9nM01srR4xoAVMCh8CDtW87m44T/4STo6eeNOtcMK//Xyex72oyTQAFaX8tuR5JZR270Jx65PwBgamsWpiJMjsr2qNfS61mWQmodJVrAGoCpSApgnxGVgGYr3+C/A4wW6M3vWGm+C4n+0Qm2Y2UpgHc+CkeER8VpL5FPd9hMLWp7kn+q0GZkqtAp5vg+K7JAtCNa9A+vaqapANm/8sPdTF0sRPucqB/IF+FJ/4Jbyj9N6WU9yXpHQ6xVYCVMdY/PKRhNpKfb0oPr8V3vmzlUGCwbiy5YFJsxvOL/1nrX7AU1Za/XlGlvnFK5qhV0CVaVLVsljgfT0obnkKpQs8R9VwmRRPxA2VK0iGwAaqGA04KvHxR68ge4heU3L8UdSm+qWlyBVFbd2MgBJNucgIRbnAAeV7C/zkzkbBY8mJKDKrLGe20cUYetHwFJFnafg69qHwxmso5Rk0CMNFKeyf59yDQJwraJStYqKa2D/ahZ/k9uPRtINlA9OcPFvtrIgvSKrLl9jEvclIJLx6DcJXrkB4/gK4jU1cNUKbHGTugjN6mA7rAJzs6PRJloxATlAGYlVqSCcHJ/QsCplVHGdldeu0ugEYVvBblaRoge5429l3sccdxjPrG/CXO/uQkofW6vlJYMxYIvs00xyNInr3vYhvugXh9sVwa2uDLiwDjdmjOAWMMWY9/5+MW18C8uO2WSwBmxtUqgYwg+mDkc+FV5BLLiLYpM9QVbCrAVhFsoqy78GRLuzo2ctt4uGtuQnsb4niurMZjusPKLepf+WAJEFtbUg99B0kbr0dTjyB3tES9h/KobO3iIFxTh35G2sYHM8MYU1bDK31q+HWrWDgvQo48RQw3Ekh1QIrjxJvTIQyjKIUFundhXzTnfDSy9lUFaT7PJcAlAYFmtHOno/QPUFToqyBqIMn1s/AlX3daMiKwsTCRFYszREh0rJlSD/yA8TXbUCGx9WL/53Fbw5kcayPe4erb3vqkzEidVnQ6OLuVVE8sDaGhtlfA2K8SRx9HBikhxRGH6fpGNRJNknPVMDJjSE0/B7yqWU8Nii0mo9162T8Phpae7E/M4z3Lxw1dT1rFbWCb8+N0wFUoo6Sjgg+iyfX1ITo5u8isf4aDEx4eGznFH6yYwIHuwuYKnDSyFM0mZYp/qJngD++awo/3j6JI92cgRlf4i3iEcadDLCljH+k+OrZws5PFYmr2P8mkGVsTLnTEh8JsCqRQUyHR87g0MhpI1+tmpSJsIMtV9ejL+kaHvGVMzlS930DdRu/gjGu8M/fnMKWDzIGWJGTYIFVSk2YaAKdZ/tLHVn8bNckuoeJqPE6YP6DHFSqaeSLsvFipKk0mVei8dNwJ0+RVzMyPZlYNCAJv1xwx/BJ5BhnEsG0Q/ZoYxTbF6eoGBn9TBY6knak77qHFuPihY8yeJrgpDgXqbJyRraebVabbbfPu47l8Dz7erL7VpprI++FEs5/k1mUk2hKwq7ELRUaO0R2AlSfqmRWsExiY66YR+foWXNOWWa7UhokR4/24spadNWH2ESCn6PXb0Ro1mycGSziGYLLUnOtjs0+KAIOzDRoMytLwSo1Ic/tzeDA2TxfYTTAa7mFalYZmNnwvuYCJqWDzIo71kWcvGYZoprYSD4rgQME5jaYGUHXWC8dhwBIiNo4SebZw7naMP51ZRpT9CyiebyJR9Zytpk+OJ3H8QEdxAJFQBQQgLlcmRePD1ztp4eLeP24Dm6mhtV0OjxepEM5CVl11qOeCSTTzRWgU2RwYiefRMosT5HkSOGR7BiGpkbUh7ItONUEWH80XOxYksbRxogB7rS0IDynzfB/dCaPHBXOm2jEKm9AGMD+SlJOYKYq8+Vs6fvPMr7RVorNgBdvZYUAqldPI0nZ6kweN8c4OTdidOIQdh5YlAGqRTY8mc9irJAxZiPA5l6nNsnkh2oX4i62rqnFCG8sLl8cuTVptgInuQJTZMqQL8g6VSzNQ5ZtOT6rVM4wq80+q4+Hs2NFjGc5argWXqzFyDUfdqEqwMxzQCSePN8LMcvR2KuW7WrPQZ+PY3MF8txDOQMsONQ1CwKmibV1YPeCGnz10BhuYxTk+dHGJG1TSiqpr50WK7x6UMPAdqttUFrqpCxAEZOr2bMBs23Rp6+o6WLHCWgOHQ1v4FwEOyoHN4n62prIaizpTRiRKHjTCioo1njl1WRdTmE84uDptXXocbix+fJVqZbXNLuXLT/Z/GfeJ1k3MjSGyaIFdbXZ9hgHjlM26DBQ0IoIDbPMtDpZtS3FjMOqBgyQ+ezWRH26QIoe4joJhJFhOpuafb9hhFgxe+YmsTs+ijzfholjaTO1U7tx15wlXYlMXeOq7o9veFSv4jXtfDfbGEKKkRPyDMCzvA5dLklOANyUEuVykqR9MIjtaAEatOYDcZpGwo2aseVYeGEsh2IimlVmqdkvsMu/tBbwyXiPEbx2bgRJGT3bTNZgpi5wqgdlQK/iJUm4bljI96PsV5o4D2firNVSn2w3uUKZRisixi0URJ4Wi1gNQDM2e0v5hBtDjWtv+JIpIPbSak1KvPYIsfyHmyPYNnKE52eBykVx22LZKTt+ZmaDaVMZ1MXvYeMVEdyxVJdvyh7YA6dIE5Wu/lFgHgKPKhlKRhat2a1HKcxXi0ak1U3NdgUNlx6BulgNWqP1xkStAmQmPdBFF1Ar266uGl44/Q6O9J1EbdzBd69NorWWYk0Hjfb5svbv5msSaKpxeWs6h1L3bvYlugCQH5ZJR4uahVXElDm3kQFC2pICOll8gHZJ5fkioQgWxJv4es53DGTSftRBTAMz+pr9SSHmmbSuqUE81/k6pnIZ3LYkhr+6rQa1MSnndyiXrJi66H4bvUuKDvPHX03j/lUJbtsCsqd+DXeUXwVYtcioFMizT7bRMng8nLMRfsfBrXVRpwCgz85ZCvFN1ZLaNsQYUMgUZaLBXpTT0Hrav8B8LdAnj+zA1gMvc5sV8dD6JP7h/jqsmR1mX45JGeXZUN08W9rCGSH89N46fO/aFMf20HniNUye2oaQOkp/Y54+UuNEDLEyQWSb4r05V7OQALUHfV7WlPxdSS42qClMgAtqZ2GOm8ZJb4zvUqwsLbW47AcLKqnxeLdgPw+jXg6Pffic8cAPrrkLD6xJYB2dzr8dmML2jgy6hgq4MG7Nuz7hor0xjNuXxXDPygRWz4lwIhmmdb6NcOfTaMcwnAhHlELKFyejiIhSzsMkeI+snW8A2u1a6USAltuYuL+Cs9LNWF+3CCdG9pqBDDiaknl5a/gdLgj7EWGwI3W76S5M4G/efwY944P4g6vvwULeEf/i5ho8vCGJTwmwf8p+25Smu5w/I4zZdTpteYmfHMHzB19Fz/EX8EjqU4Sjru9XBMCwVAHVuKSZvcmgYMrDRGwBoqlmApSmNsTwe9kV1OFu5PgAUzHOflM7Xu7dh5EQzVTo2dGYq6nbMQxwXwG9AC5S3578FH6690XsOXcYdy+5EbcsWo9Ztc1orqG5Bn0560Wa8rmhC4Zv29G3sefTd/Gz2WNo4pTbwIhjVhbCByVggeqqOxiZjKEwfyWS0STlUwGOYRfC8hkTzUzpmyF7yLtcilgkxkN7Pq6pmY+duZO8MeiSa/rafcm+VlcRNZA/LuslXox5q8PO3o/xxrkOLN83D1dR1qKGOWhK1VN5F4MM5k8Nnse+3uPoGDqNQtjDD5pzuKmGJxlXQdZQ8Q5SVGD9QTSwwh6mzHgRQ6GliLasgBtmWGc6soHKagspGYBFfUMkAv81y9FwlDM+A1+efRU+7DxFIQTvx5tm7/vjSUDgC2QxJpHP40SWOJsZ9ts/dhr7h7vAqlFMBmT2tRQNMdPbrk2WsLk+z4OerRpHAKuT+ior+fUiryGDo1GUFlzNF9cNcOn9LUCO72MRsxEV9NWyaIbD9EapeA1Wzl6CTQ3LEZ7k6UcmkzlGuU6a4lQbq5JO5c3WoFSPynthhk/REIrxMAoMMguJMHKJEPJx0ZhJizLu/DbBLeIqugLHf5MrFRKU2OCDU0A0MlTESOJKxFpXIxzjAa/gPFhB28F8GoCSqaTSJcgQbwhx/jCgpbYJN89bg6UOb9gZXV/9pZcJ+H8a1Y4blKRQRpHKlii9RKAlAi3QzJWLzKUgc6Xvrs3jW7V8180+dvMJiDKVUQ4OW1YDkOPDBfRmW+AuvBHxmiZii7M/hdmZMZyySiWq4KDA7+DKSQA5E1EueU0ihcUzF+C+eRswO8MYMUtT5tjSxZgmFVApm7emavdxYK66RjEGNlmm58gktUqis2iLlPD9uhxqhITP5SSZ1c9qEI1gJ0YK6BliQDB3I5LNixFh5OXqgKfOgRMT+8SEbiIaioJGRxi5+0ly9QI1HAojEWXolG7A+nkrce/sdWicpAkTpBnMfvi9DEpLl656ZCIMfdh9ECjMUmOGyfTtujxuiGuJxCyGqhzMkmiSR7bJkTzO94WRnXUtkvPWI5ZstM6FZ/e0l75knxi3AMPajwP9fAVelTQTIS55jKuYiqcwu34WNtHdF/hC6jd8293PS7EXo3+SPlXJGqklBE1mv/NBz3Z9VXq4PlbE5po8XL3AETiBsEy+RBJEY2IMgNGBPHoH6bhaNyLV/mUkGIyEeDTwgzNojwfLbT/7++2XtHTq+kHD+UBWWWezF+ls4uEY0ok05jbOwS3t1xgPtb17P3p1yU0RpF5Rc3Z9XcpKlhdA45V1JUQOmGaHP6rPYZ5u1uURLZ/YTTICGAPz9cVATxaD41Hk596IZPsNSNa3IRxPE1eMlqmDQPFUVeLDp6fPGYJOXxw5dAz9fQNVv0ezzMajGlONo5SsxdzmObjdvQ7pSBIvn92LruFhFBkpe/SUZT2DkbR0JmkKK0ku/H6u3H1xRsgBvoC1wsZXgIxQhnLoHyiAxz+cdoKjw0vVzUEkUUvT5JVOR4PdAFUzzMhoeATHjp6kTo7OQYe/KelEx8dHcdPN11cNwa5icMJ0+TSqGM3BiHN544hiZqoBO8/sw4HRMxiO8LUFjwAL1LezstLlium/OGxNM6HbfnlWVGU/gi/xVdsE99rQUB4TkyFkm1YhMncdEi1LkEjPRDhRR6/JqMU4lsA0p0/ioY87cfTwJ5Qu/bm4Gmv3zndw3UZuXH3/XZXk/cKaB3lh3kW1P3VOJqJxE4ItPfMx3uv/BJ8M9yEXyaPE882LMPNokM6B4oKptwMPp/O4LsYBZYIWEzyCyk4VMD5WoHPgm7mMg6maKxBavArx2cuQqGulQ5lBs6TH5Mo5NE1W2J3b46Kk4+GNXe/yl04ZLpDRnDipycvbdmDdhlW45+t3TOsiHQNTlULiDZ4TjFnra2px1dBidPScxCGGXScmeuiEphh+kZkgTdahz36LnCLuzE5hvJ/f2tIEc7mSyXlGJTm+X8yF+LVA7Ty4be1IzFyIWN1sxA0w7jd6dIVjZuUCcGYGq9X18MpLu7B9207qacFrh5qZyGULePapX2HpsnYsWbaoupdZBIGKcEYCgLo3RsJhJCMJ1CXrMKt+JtaOL8O54R6cYj4z1ocevkQenZrAZCGLPOOdGAPs0dEsTmlsRh4ev7QsRWtRqmGo1dqKcF2L8Y6xZAMilBmJBcDkTJhNOFZ9JATmr2WwzvL5Z7fxt6NTXASZHLHNa1hruGioDMGKuP7G9fjho398CUgxi1FOQrePAo8KfY+R5XfkOQLI8OeSk7xJTGQmMEFQ4yzHmEcnx8jDM4m8M9wSvhQpIk7PG+LvXFy6+VCy3rj7CMOtMPd5OMqLL/eYy4BfWSvmKAyTt6TSmuDLpa6TZ/hzyl/QPN9jM7eHb75lgOoUgNRPoR78zjdxx9du5i8f5ammJ2LkZNDMuCIFvmLIM+f4U8kCs0oBzrLMFwSe+5LgwnyvUMNjoZYTG+WNIUILcOmhXQb2Lp1WiNlhXT/wMYEzQQmYQ6shgQqb/TFdET5l+cvFt994H0/90wv8BfAhwlKfyt6cBlC9DUgqnqyJ4fY7N+GmW2/AmqtXor6hjq3Vs0fP6gMVWAHVN8Om5FdvAq8Nr6/jdFLT7XDoki4PBGjDQSmiH/M4Oku1r8qrpNUSMDkqKVs9rrRksM2joOPgUex4ZTd2vvIGzZJOxUxEAM72uQSgOpvXhMZkS9Bvt69csRgL2+ejbW4rf93YjHS6BskkzSlCJcSvPwLRhVhgy5mmLJo45K3FLd+jkFSWVlbegJBizKorXjUmppKvBBkrT/HFi8Kvvt5+BibncOKTUzy/O83vQrXfFGybVTY9Kh+XBRg0B4prVc0dq1wGHH5p9oWAKElzWxMwk3yS2KS7jVUJmc0aQ0lffGoMP1w3NCPITJAe1VEQ7J8mQPvRWIEZkO2XSXYJLtMgkhFlvJFCoUDZcq2qV0W4weq3qEelhQ8iMPuSDJfahUFlpa84/J5VAmxVq2xr1Z9G2GU+/gdWMsEUFfla8AAAAABJRU5ErkJggg==;" parent="JanNo0E4OkqzpQ1DrJZF-33" vertex="1">
          <mxGeometry x="150" width="56" height="55" as="geometry" />
        </mxCell>
        <mxCell id="JanNo0E4OkqzpQ1DrJZF-32" value="。。。" style="text;strokeColor=none;align=center;fillColor=none;html=1;verticalAlign=middle;whiteSpace=wrap;rounded=0;" parent="JanNo0E4OkqzpQ1DrJZF-33" vertex="1">
          <mxGeometry x="90" y="12.5" width="60" height="30" as="geometry" />
        </mxCell>
        <mxCell id="JanNo0E4OkqzpQ1DrJZF-37" value="" style="group" parent="1" vertex="1" connectable="0">
          <mxGeometry x="970" y="255" width="206" height="55" as="geometry" />
        </mxCell>
        <mxCell id="JanNo0E4OkqzpQ1DrJZF-38" value="" style="sketch=0;pointerEvents=1;shadow=0;dashed=0;html=1;strokeColor=none;fillColor=#505050;labelPosition=center;verticalLabelPosition=bottom;verticalAlign=top;outlineConnect=0;align=center;shape=mxgraph.office.devices.cell_phone_android_standalone;" parent="JanNo0E4OkqzpQ1DrJZF-37" vertex="1">
          <mxGeometry y="5.5" width="24" height="44" as="geometry" />
        </mxCell>
        <mxCell id="JanNo0E4OkqzpQ1DrJZF-39" value="" style="sketch=0;pointerEvents=1;shadow=0;dashed=0;html=1;strokeColor=none;fillColor=#505050;labelPosition=center;verticalLabelPosition=bottom;verticalAlign=top;outlineConnect=0;align=center;shape=mxgraph.office.devices.cell_phone_android_standalone;" parent="JanNo0E4OkqzpQ1DrJZF-37" vertex="1">
          <mxGeometry x="50" y="5.5" width="24" height="44" as="geometry" />
        </mxCell>
        <mxCell id="JanNo0E4OkqzpQ1DrJZF-40" value="" style="shape=image;verticalLabelPosition=bottom;labelBackgroundColor=default;verticalAlign=top;aspect=fixed;imageAspect=0;image=data:image/png,iVBORw0KGgoAAAANSUhEUgAAADgAAAA3CAYAAABZ0InLAAABX2lDQ1BJQ0MgUHJvZmlsZQAAKJFtkMEvA1EQxr9SaaI9tCEOUlQckJTUbi+OVYKkh00R1Gn7ulqyWy/bFXHzR4gbR/EPSBMc3F0kEhInDjRxJNkLzZrXxbaYl8n88mW+9+YN0BZSOdf9AIyyZWZnp2Irq7lYoIYAuhBCHwZVVuEpRclQC75ra9i38Il6Mybu6h+66n09i7xEa0e554G14N/+lugsaBVG9YNSYty0AF+CWNmxuOA94m6ThiLeF1x0+URw3uWLRs9iNk18TRxmJbVA/EAczzfpxSY29G32NYOYPqSVlxao9lBGMY0ZZOjEoEBCEhOYxBzt6H9PsuFJYwscuzCxgSJKsMidIoVDh0Y8jzIYxhEnlpCglMWuf+/Q0wpPgGzQUyOethkGzm0gcuppw4/0nUPgUuGqqf5s1mf7K+uy5HKwCnQcOM7bMhAYBep3jvNedZz6MdB+T177E+KSY3TGIFxYAAAAOGVYSWZNTQAqAAAACAABh2kABAAAAAEAAAAaAAAAAAACoAIABAAAAAEAAAA4oAMABAAAAAEAAAA3AAAAAKzP3bgAABZkSURBVGgFrVppkFXHdf7ufft782ZhZhgYBsQyLAIECDBakGyh1bI2W2X9cBRZDrYri8pJOZVSuVKVqvhHqlJW2VEqVa5U2Yk2UCRFThwsFAmBgnZFQmwalkHAAAJmYfb17Tff133ve28A2YqSnunXfU+fPn2+7tOnT9/3nCsarvVwmRRPRHHX12/Bpluvx8rVS9HUPAOW0YPDPyWPf6pfXF4sTv1sD/Wp1AO+alp1PWhXKbqS5Hieh+GhURzYexiv73gHr778FibGJk37xR/OJQApYfnKxfj9zffjjru+gmgscnGf/6fnAPL/TVw+n8eO7W9iyxP/jkMHOgl+ujwCvIYkfzAWN960AX/26GYsXb5oOucXeHKyWWBkCMhkgFwOKBWtlFAIiESBVA2QroUXjX0B6dVdPJw4dgp//9iT+K/X3q0sN1nClk2wPSxb3o5H/vzhLw6uWIIzcAE4exo4fgw4cwpOz3lgdBTexDicQp7jcBYjtIpkCmiYATS3wJnTBq99KTB/IbzGZsB1rVqf+9PBoiUL8MMfbcbAhUEc3HfEjsNPH6DGS+Dh7z+AFVct+dxiy4xTk3BOHgc+fA/YtwdeN0EVivBKBEymwGqCupPlao5PAH19QOdRA8ghaKd1DrBmHbB+A7BkOTyt8v8iLVh0BR7c/A0c/1EXJidoPUyh+kTbX0uF27nfvvcn30IoTPP5vEkm2HkYeH4L8MIWeAcPwhsaNuBQIixrGCwJzaDUh2BOT442jiZkmObceQTOh+8Dn56Bk0wALbPY5dI+0yVUnq6YPwfd53txuOM4R3IswFg8ij/804eweOmCCufvqvX2wNv+a+Cf/xFeJzd3hmANCHUsV1ivKOeIHGSxXZz8iZAs73QXcHA/MDQIp20u9ytN+nMkLVA0GuFefAf5XEEm6qGdwFZfvXy6Xp8ljI7C6+BKbX2CwGheRT6T18JQ7eJUoelQKaeA7JOm9+cTV9W7wP38H7+Cc7wTzjd/D1i99nOtpk6BZXSSez/ogKtxrlyxCI1NDeWxP6viFQoovbUbxb/7WxQPdaCkZynCDiWTPZbMpJlSNDaqTTzitNz2yVDVX/x+ZmGeyyVNt3TgAEo/fxzem7vgcUJ/V2qYUU9rnG/YzAq2zWulmVfN7mUkeEWC2fUqSlue4D4bnM4hbapXR60i8cMEBWz3JN9nM01srR4xoAVMCh8CDtW87m44T/4STo6eeNOtcMK//Xyex72oyTQAFaX8tuR5JZR270Jx65PwBgamsWpiJMjsr2qNfS61mWQmodJVrAGoCpSApgnxGVgGYr3+C/A4wW6M3vWGm+C4n+0Qm2Y2UpgHc+CkeER8VpL5FPd9hMLWp7kn+q0GZkqtAp5vg+K7JAtCNa9A+vaqapANm/8sPdTF0sRPucqB/IF+FJ/4Jbyj9N6WU9yXpHQ6xVYCVMdY/PKRhNpKfb0oPr8V3vmzlUGCwbiy5YFJsxvOL/1nrX7AU1Za/XlGlvnFK5qhV0CVaVLVsljgfT0obnkKpQs8R9VwmRRPxA2VK0iGwAaqGA04KvHxR68ge4heU3L8UdSm+qWlyBVFbd2MgBJNucgIRbnAAeV7C/zkzkbBY8mJKDKrLGe20cUYetHwFJFnafg69qHwxmso5Rk0CMNFKeyf59yDQJwraJStYqKa2D/ahZ/k9uPRtINlA9OcPFvtrIgvSKrLl9jEvclIJLx6DcJXrkB4/gK4jU1cNUKbHGTugjN6mA7rAJzs6PRJloxATlAGYlVqSCcHJ/QsCplVHGdldeu0ugEYVvBblaRoge5429l3sccdxjPrG/CXO/uQkofW6vlJYMxYIvs00xyNInr3vYhvugXh9sVwa2uDLiwDjdmjOAWMMWY9/5+MW18C8uO2WSwBmxtUqgYwg+mDkc+FV5BLLiLYpM9QVbCrAVhFsoqy78GRLuzo2ctt4uGtuQnsb4niurMZjusPKLepf+WAJEFtbUg99B0kbr0dTjyB3tES9h/KobO3iIFxTh35G2sYHM8MYU1bDK31q+HWrWDgvQo48RQw3Ekh1QIrjxJvTIQyjKIUFundhXzTnfDSy9lUFaT7PJcAlAYFmtHOno/QPUFToqyBqIMn1s/AlX3daMiKwsTCRFYszREh0rJlSD/yA8TXbUCGx9WL/53Fbw5kcayPe4erb3vqkzEidVnQ6OLuVVE8sDaGhtlfA2K8SRx9HBikhxRGH6fpGNRJNknPVMDJjSE0/B7yqWU8Nii0mo9162T8Phpae7E/M4z3Lxw1dT1rFbWCb8+N0wFUoo6Sjgg+iyfX1ITo5u8isf4aDEx4eGznFH6yYwIHuwuYKnDSyFM0mZYp/qJngD++awo/3j6JI92cgRlf4i3iEcadDLCljH+k+OrZws5PFYmr2P8mkGVsTLnTEh8JsCqRQUyHR87g0MhpI1+tmpSJsIMtV9ejL+kaHvGVMzlS930DdRu/gjGu8M/fnMKWDzIGWJGTYIFVSk2YaAKdZ/tLHVn8bNckuoeJqPE6YP6DHFSqaeSLsvFipKk0mVei8dNwJ0+RVzMyPZlYNCAJv1xwx/BJ5BhnEsG0Q/ZoYxTbF6eoGBn9TBY6knak77qHFuPihY8yeJrgpDgXqbJyRraebVabbbfPu47l8Dz7erL7VpprI++FEs5/k1mUk2hKwq7ELRUaO0R2AlSfqmRWsExiY66YR+foWXNOWWa7UhokR4/24spadNWH2ESCn6PXb0Ro1mycGSziGYLLUnOtjs0+KAIOzDRoMytLwSo1Ic/tzeDA2TxfYTTAa7mFalYZmNnwvuYCJqWDzIo71kWcvGYZoprYSD4rgQME5jaYGUHXWC8dhwBIiNo4SebZw7naMP51ZRpT9CyiebyJR9Zytpk+OJ3H8QEdxAJFQBQQgLlcmRePD1ztp4eLeP24Dm6mhtV0OjxepEM5CVl11qOeCSTTzRWgU2RwYiefRMosT5HkSOGR7BiGpkbUh7ItONUEWH80XOxYksbRxogB7rS0IDynzfB/dCaPHBXOm2jEKm9AGMD+SlJOYKYq8+Vs6fvPMr7RVorNgBdvZYUAqldPI0nZ6kweN8c4OTdidOIQdh5YlAGqRTY8mc9irJAxZiPA5l6nNsnkh2oX4i62rqnFCG8sLl8cuTVptgInuQJTZMqQL8g6VSzNQ5ZtOT6rVM4wq80+q4+Hs2NFjGc5argWXqzFyDUfdqEqwMxzQCSePN8LMcvR2KuW7WrPQZ+PY3MF8txDOQMsONQ1CwKmibV1YPeCGnz10BhuYxTk+dHGJG1TSiqpr50WK7x6UMPAdqttUFrqpCxAEZOr2bMBs23Rp6+o6WLHCWgOHQ1v4FwEOyoHN4n62prIaizpTRiRKHjTCioo1njl1WRdTmE84uDptXXocbix+fJVqZbXNLuXLT/Z/GfeJ1k3MjSGyaIFdbXZ9hgHjlM26DBQ0IoIDbPMtDpZtS3FjMOqBgyQ+ezWRH26QIoe4joJhJFhOpuafb9hhFgxe+YmsTs+ijzfholjaTO1U7tx15wlXYlMXeOq7o9veFSv4jXtfDfbGEKKkRPyDMCzvA5dLklOANyUEuVykqR9MIjtaAEatOYDcZpGwo2aseVYeGEsh2IimlVmqdkvsMu/tBbwyXiPEbx2bgRJGT3bTNZgpi5wqgdlQK/iJUm4bljI96PsV5o4D2firNVSn2w3uUKZRisixi0URJ4Wi1gNQDM2e0v5hBtDjWtv+JIpIPbSak1KvPYIsfyHmyPYNnKE52eBykVx22LZKTt+ZmaDaVMZ1MXvYeMVEdyxVJdvyh7YA6dIE5Wu/lFgHgKPKhlKRhat2a1HKcxXi0ak1U3NdgUNlx6BulgNWqP1xkStAmQmPdBFF1Ar266uGl44/Q6O9J1EbdzBd69NorWWYk0Hjfb5svbv5msSaKpxeWs6h1L3bvYlugCQH5ZJR4uahVXElDm3kQFC2pICOll8gHZJ5fkioQgWxJv4es53DGTSftRBTAMz+pr9SSHmmbSuqUE81/k6pnIZ3LYkhr+6rQa1MSnndyiXrJi66H4bvUuKDvPHX03j/lUJbtsCsqd+DXeUXwVYtcioFMizT7bRMng8nLMRfsfBrXVRpwCgz85ZCvFN1ZLaNsQYUMgUZaLBXpTT0Hrav8B8LdAnj+zA1gMvc5sV8dD6JP7h/jqsmR1mX45JGeXZUN08W9rCGSH89N46fO/aFMf20HniNUye2oaQOkp/Y54+UuNEDLEyQWSb4r05V7OQALUHfV7WlPxdSS42qClMgAtqZ2GOm8ZJb4zvUqwsLbW47AcLKqnxeLdgPw+jXg6Pffic8cAPrrkLD6xJYB2dzr8dmML2jgy6hgq4MG7Nuz7hor0xjNuXxXDPygRWz4lwIhmmdb6NcOfTaMcwnAhHlELKFyejiIhSzsMkeI+snW8A2u1a6USAltuYuL+Cs9LNWF+3CCdG9pqBDDiaknl5a/gdLgj7EWGwI3W76S5M4G/efwY944P4g6vvwULeEf/i5ho8vCGJTwmwf8p+25Smu5w/I4zZdTpteYmfHMHzB19Fz/EX8EjqU4Sjru9XBMCwVAHVuKSZvcmgYMrDRGwBoqlmApSmNsTwe9kV1OFu5PgAUzHOflM7Xu7dh5EQzVTo2dGYq6nbMQxwXwG9AC5S3578FH6690XsOXcYdy+5EbcsWo9Ztc1orqG5Bn0560Wa8rmhC4Zv29G3sefTd/Gz2WNo4pTbwIhjVhbCByVggeqqOxiZjKEwfyWS0STlUwGOYRfC8hkTzUzpmyF7yLtcilgkxkN7Pq6pmY+duZO8MeiSa/rafcm+VlcRNZA/LuslXox5q8PO3o/xxrkOLN83D1dR1qKGOWhK1VN5F4MM5k8Nnse+3uPoGDqNQtjDD5pzuKmGJxlXQdZQ8Q5SVGD9QTSwwh6mzHgRQ6GliLasgBtmWGc6soHKagspGYBFfUMkAv81y9FwlDM+A1+efRU+7DxFIQTvx5tm7/vjSUDgC2QxJpHP40SWOJsZ9ts/dhr7h7vAqlFMBmT2tRQNMdPbrk2WsLk+z4OerRpHAKuT+ior+fUiryGDo1GUFlzNF9cNcOn9LUCO72MRsxEV9NWyaIbD9EapeA1Wzl6CTQ3LEZ7k6UcmkzlGuU6a4lQbq5JO5c3WoFSPynthhk/REIrxMAoMMguJMHKJEPJx0ZhJizLu/DbBLeIqugLHf5MrFRKU2OCDU0A0MlTESOJKxFpXIxzjAa/gPFhB28F8GoCSqaTSJcgQbwhx/jCgpbYJN89bg6UOb9gZXV/9pZcJ+H8a1Y4blKRQRpHKlii9RKAlAi3QzJWLzKUgc6Xvrs3jW7V8180+dvMJiDKVUQ4OW1YDkOPDBfRmW+AuvBHxmiZii7M/hdmZMZyySiWq4KDA7+DKSQA5E1EueU0ihcUzF+C+eRswO8MYMUtT5tjSxZgmFVApm7emavdxYK66RjEGNlmm58gktUqis2iLlPD9uhxqhITP5SSZ1c9qEI1gJ0YK6BliQDB3I5LNixFh5OXqgKfOgRMT+8SEbiIaioJGRxi5+0ly9QI1HAojEWXolG7A+nkrce/sdWicpAkTpBnMfvi9DEpLl656ZCIMfdh9ECjMUmOGyfTtujxuiGuJxCyGqhzMkmiSR7bJkTzO94WRnXUtkvPWI5ZstM6FZ/e0l75knxi3AMPajwP9fAVelTQTIS55jKuYiqcwu34WNtHdF/hC6jd8293PS7EXo3+SPlXJGqklBE1mv/NBz3Z9VXq4PlbE5po8XL3AETiBsEy+RBJEY2IMgNGBPHoH6bhaNyLV/mUkGIyEeDTwgzNojwfLbT/7++2XtHTq+kHD+UBWWWezF+ls4uEY0ok05jbOwS3t1xgPtb17P3p1yU0RpF5Rc3Z9XcpKlhdA45V1JUQOmGaHP6rPYZ5u1uURLZ/YTTICGAPz9cVATxaD41Hk596IZPsNSNa3IRxPE1eMlqmDQPFUVeLDp6fPGYJOXxw5dAz9fQNVv0ezzMajGlONo5SsxdzmObjdvQ7pSBIvn92LruFhFBkpe/SUZT2DkbR0JmkKK0ku/H6u3H1xRsgBvoC1wsZXgIxQhnLoHyiAxz+cdoKjw0vVzUEkUUvT5JVOR4PdAFUzzMhoeATHjp6kTo7OQYe/KelEx8dHcdPN11cNwa5icMJ0+TSqGM3BiHN544hiZqoBO8/sw4HRMxiO8LUFjwAL1LezstLlium/OGxNM6HbfnlWVGU/gi/xVdsE99rQUB4TkyFkm1YhMncdEi1LkEjPRDhRR6/JqMU4lsA0p0/ioY87cfTwJ5Qu/bm4Gmv3zndw3UZuXH3/XZXk/cKaB3lh3kW1P3VOJqJxE4ItPfMx3uv/BJ8M9yEXyaPE882LMPNokM6B4oKptwMPp/O4LsYBZYIWEzyCyk4VMD5WoHPgm7mMg6maKxBavArx2cuQqGulQ5lBs6TH5Mo5NE1W2J3b46Kk4+GNXe/yl04ZLpDRnDipycvbdmDdhlW45+t3TOsiHQNTlULiDZ4TjFnra2px1dBidPScxCGGXScmeuiEphh+kZkgTdahz36LnCLuzE5hvJ/f2tIEc7mSyXlGJTm+X8yF+LVA7Ty4be1IzFyIWN1sxA0w7jd6dIVjZuUCcGYGq9X18MpLu7B9207qacFrh5qZyGULePapX2HpsnYsWbaoupdZBIGKcEYCgLo3RsJhJCMJ1CXrMKt+JtaOL8O54R6cYj4z1ocevkQenZrAZCGLPOOdGAPs0dEsTmlsRh4ev7QsRWtRqmGo1dqKcF2L8Y6xZAMilBmJBcDkTJhNOFZ9JATmr2WwzvL5Z7fxt6NTXASZHLHNa1hruGioDMGKuP7G9fjho398CUgxi1FOQrePAo8KfY+R5XfkOQLI8OeSk7xJTGQmMEFQ4yzHmEcnx8jDM4m8M9wSvhQpIk7PG+LvXFy6+VCy3rj7CMOtMPd5OMqLL/eYy4BfWSvmKAyTt6TSmuDLpa6TZ/hzyl/QPN9jM7eHb75lgOoUgNRPoR78zjdxx9du5i8f5ammJ2LkZNDMuCIFvmLIM+f4U8kCs0oBzrLMFwSe+5LgwnyvUMNjoZYTG+WNIUILcOmhXQb2Lp1WiNlhXT/wMYEzQQmYQ6shgQqb/TFdET5l+cvFt994H0/90wv8BfAhwlKfyt6cBlC9DUgqnqyJ4fY7N+GmW2/AmqtXor6hjq3Vs0fP6gMVWAHVN8Om5FdvAq8Nr6/jdFLT7XDoki4PBGjDQSmiH/M4Oku1r8qrpNUSMDkqKVs9rrRksM2joOPgUex4ZTd2vvIGzZJOxUxEAM72uQSgOpvXhMZkS9Bvt69csRgL2+ejbW4rf93YjHS6BskkzSlCJcSvPwLRhVhgy5mmLJo45K3FLd+jkFSWVlbegJBizKorXjUmppKvBBkrT/HFi8Kvvt5+BibncOKTUzy/O83vQrXfFGybVTY9Kh+XBRg0B4prVc0dq1wGHH5p9oWAKElzWxMwk3yS2KS7jVUJmc0aQ0lffGoMP1w3NCPITJAe1VEQ7J8mQPvRWIEZkO2XSXYJLtMgkhFlvJFCoUDZcq2qV0W4weq3qEelhQ8iMPuSDJfahUFlpa84/J5VAmxVq2xr1Z9G2GU+/gdWMsEUFfla8AAAAABJRU5ErkJggg==;" parent="JanNo0E4OkqzpQ1DrJZF-37" vertex="1">
          <mxGeometry x="150" width="56" height="55" as="geometry" />
        </mxCell>
        <mxCell id="JanNo0E4OkqzpQ1DrJZF-41" value="。。。" style="text;strokeColor=none;align=center;fillColor=none;html=1;verticalAlign=middle;whiteSpace=wrap;rounded=0;" parent="JanNo0E4OkqzpQ1DrJZF-37" vertex="1">
          <mxGeometry x="90" y="12.5" width="60" height="30" as="geometry" />
        </mxCell>
        <mxCell id="JanNo0E4OkqzpQ1DrJZF-45" value="" style="group" parent="1" vertex="1" connectable="0">
          <mxGeometry x="970" y="485" width="206" height="55" as="geometry" />
        </mxCell>
        <mxCell id="JanNo0E4OkqzpQ1DrJZF-46" value="" style="sketch=0;pointerEvents=1;shadow=0;dashed=0;html=1;strokeColor=none;fillColor=#505050;labelPosition=center;verticalLabelPosition=bottom;verticalAlign=top;outlineConnect=0;align=center;shape=mxgraph.office.devices.cell_phone_android_standalone;" parent="JanNo0E4OkqzpQ1DrJZF-45" vertex="1">
          <mxGeometry y="5.5" width="24" height="44" as="geometry" />
        </mxCell>
        <mxCell id="JanNo0E4OkqzpQ1DrJZF-47" value="" style="sketch=0;pointerEvents=1;shadow=0;dashed=0;html=1;strokeColor=none;fillColor=#505050;labelPosition=center;verticalLabelPosition=bottom;verticalAlign=top;outlineConnect=0;align=center;shape=mxgraph.office.devices.cell_phone_android_standalone;" parent="JanNo0E4OkqzpQ1DrJZF-45" vertex="1">
          <mxGeometry x="50" y="5.5" width="24" height="44" as="geometry" />
        </mxCell>
        <mxCell id="JanNo0E4OkqzpQ1DrJZF-48" value="" style="shape=image;verticalLabelPosition=bottom;labelBackgroundColor=default;verticalAlign=top;aspect=fixed;imageAspect=0;image=data:image/png,iVBORw0KGgoAAAANSUhEUgAAADgAAAA3CAYAAABZ0InLAAABX2lDQ1BJQ0MgUHJvZmlsZQAAKJFtkMEvA1EQxr9SaaI9tCEOUlQckJTUbi+OVYKkh00R1Gn7ulqyWy/bFXHzR4gbR/EPSBMc3F0kEhInDjRxJNkLzZrXxbaYl8n88mW+9+YN0BZSOdf9AIyyZWZnp2Irq7lYoIYAuhBCHwZVVuEpRclQC75ra9i38Il6Mybu6h+66n09i7xEa0e554G14N/+lugsaBVG9YNSYty0AF+CWNmxuOA94m6ThiLeF1x0+URw3uWLRs9iNk18TRxmJbVA/EAczzfpxSY29G32NYOYPqSVlxao9lBGMY0ZZOjEoEBCEhOYxBzt6H9PsuFJYwscuzCxgSJKsMidIoVDh0Y8jzIYxhEnlpCglMWuf+/Q0wpPgGzQUyOethkGzm0gcuppw4/0nUPgUuGqqf5s1mf7K+uy5HKwCnQcOM7bMhAYBep3jvNedZz6MdB+T177E+KSY3TGIFxYAAAAOGVYSWZNTQAqAAAACAABh2kABAAAAAEAAAAaAAAAAAACoAIABAAAAAEAAAA4oAMABAAAAAEAAAA3AAAAAKzP3bgAABZkSURBVGgFrVppkFXHdf7ufft782ZhZhgYBsQyLAIECDBakGyh1bI2W2X9cBRZDrYri8pJOZVSuVKVqvhHqlJW2VEqVa5U2Yk2UCRFThwsFAmBgnZFQmwalkHAAAJmYfb17Tff133ve28A2YqSnunXfU+fPn2+7tOnT9/3nCsarvVwmRRPRHHX12/Bpluvx8rVS9HUPAOW0YPDPyWPf6pfXF4sTv1sD/Wp1AO+alp1PWhXKbqS5Hieh+GhURzYexiv73gHr778FibGJk37xR/OJQApYfnKxfj9zffjjru+gmgscnGf/6fnAPL/TVw+n8eO7W9iyxP/jkMHOgl+ujwCvIYkfzAWN960AX/26GYsXb5oOucXeHKyWWBkCMhkgFwOKBWtlFAIiESBVA2QroUXjX0B6dVdPJw4dgp//9iT+K/X3q0sN1nClk2wPSxb3o5H/vzhLw6uWIIzcAE4exo4fgw4cwpOz3lgdBTexDicQp7jcBYjtIpkCmiYATS3wJnTBq99KTB/IbzGZsB1rVqf+9PBoiUL8MMfbcbAhUEc3HfEjsNPH6DGS+Dh7z+AFVct+dxiy4xTk3BOHgc+fA/YtwdeN0EVivBKBEymwGqCupPlao5PAH19QOdRA8ghaKd1DrBmHbB+A7BkOTyt8v8iLVh0BR7c/A0c/1EXJidoPUyh+kTbX0uF27nfvvcn30IoTPP5vEkm2HkYeH4L8MIWeAcPwhsaNuBQIixrGCwJzaDUh2BOT442jiZkmObceQTOh+8Dn56Bk0wALbPY5dI+0yVUnq6YPwfd53txuOM4R3IswFg8ij/804eweOmCCufvqvX2wNv+a+Cf/xFeJzd3hmANCHUsV1ivKOeIHGSxXZz8iZAs73QXcHA/MDQIp20u9ytN+nMkLVA0GuFefAf5XEEm6qGdwFZfvXy6Xp8ljI7C6+BKbX2CwGheRT6T18JQ7eJUoelQKaeA7JOm9+cTV9W7wP38H7+Cc7wTzjd/D1i99nOtpk6BZXSSez/ogKtxrlyxCI1NDeWxP6viFQoovbUbxb/7WxQPdaCkZynCDiWTPZbMpJlSNDaqTTzitNz2yVDVX/x+ZmGeyyVNt3TgAEo/fxzem7vgcUJ/V2qYUU9rnG/YzAq2zWulmVfN7mUkeEWC2fUqSlue4D4bnM4hbapXR60i8cMEBWz3JN9nM01srR4xoAVMCh8CDtW87m44T/4STo6eeNOtcMK//Xyex72oyTQAFaX8tuR5JZR270Jx65PwBgamsWpiJMjsr2qNfS61mWQmodJVrAGoCpSApgnxGVgGYr3+C/A4wW6M3vWGm+C4n+0Qm2Y2UpgHc+CkeER8VpL5FPd9hMLWp7kn+q0GZkqtAp5vg+K7JAtCNa9A+vaqapANm/8sPdTF0sRPucqB/IF+FJ/4Jbyj9N6WU9yXpHQ6xVYCVMdY/PKRhNpKfb0oPr8V3vmzlUGCwbiy5YFJsxvOL/1nrX7AU1Za/XlGlvnFK5qhV0CVaVLVsljgfT0obnkKpQs8R9VwmRRPxA2VK0iGwAaqGA04KvHxR68ge4heU3L8UdSm+qWlyBVFbd2MgBJNucgIRbnAAeV7C/zkzkbBY8mJKDKrLGe20cUYetHwFJFnafg69qHwxmso5Rk0CMNFKeyf59yDQJwraJStYqKa2D/ahZ/k9uPRtINlA9OcPFvtrIgvSKrLl9jEvclIJLx6DcJXrkB4/gK4jU1cNUKbHGTugjN6mA7rAJzs6PRJloxATlAGYlVqSCcHJ/QsCplVHGdldeu0ugEYVvBblaRoge5429l3sccdxjPrG/CXO/uQkofW6vlJYMxYIvs00xyNInr3vYhvugXh9sVwa2uDLiwDjdmjOAWMMWY9/5+MW18C8uO2WSwBmxtUqgYwg+mDkc+FV5BLLiLYpM9QVbCrAVhFsoqy78GRLuzo2ctt4uGtuQnsb4niurMZjusPKLepf+WAJEFtbUg99B0kbr0dTjyB3tES9h/KobO3iIFxTh35G2sYHM8MYU1bDK31q+HWrWDgvQo48RQw3Ekh1QIrjxJvTIQyjKIUFundhXzTnfDSy9lUFaT7PJcAlAYFmtHOno/QPUFToqyBqIMn1s/AlX3daMiKwsTCRFYszREh0rJlSD/yA8TXbUCGx9WL/53Fbw5kcayPe4erb3vqkzEidVnQ6OLuVVE8sDaGhtlfA2K8SRx9HBikhxRGH6fpGNRJNknPVMDJjSE0/B7yqWU8Nii0mo9162T8Phpae7E/M4z3Lxw1dT1rFbWCb8+N0wFUoo6Sjgg+iyfX1ITo5u8isf4aDEx4eGznFH6yYwIHuwuYKnDSyFM0mZYp/qJngD++awo/3j6JI92cgRlf4i3iEcadDLCljH+k+OrZws5PFYmr2P8mkGVsTLnTEh8JsCqRQUyHR87g0MhpI1+tmpSJsIMtV9ejL+kaHvGVMzlS930DdRu/gjGu8M/fnMKWDzIGWJGTYIFVSk2YaAKdZ/tLHVn8bNckuoeJqPE6YP6DHFSqaeSLsvFipKk0mVei8dNwJ0+RVzMyPZlYNCAJv1xwx/BJ5BhnEsG0Q/ZoYxTbF6eoGBn9TBY6knak77qHFuPihY8yeJrgpDgXqbJyRraebVabbbfPu47l8Dz7erL7VpprI++FEs5/k1mUk2hKwq7ELRUaO0R2AlSfqmRWsExiY66YR+foWXNOWWa7UhokR4/24spadNWH2ESCn6PXb0Ro1mycGSziGYLLUnOtjs0+KAIOzDRoMytLwSo1Ic/tzeDA2TxfYTTAa7mFalYZmNnwvuYCJqWDzIo71kWcvGYZoprYSD4rgQME5jaYGUHXWC8dhwBIiNo4SebZw7naMP51ZRpT9CyiebyJR9Zytpk+OJ3H8QEdxAJFQBQQgLlcmRePD1ztp4eLeP24Dm6mhtV0OjxepEM5CVl11qOeCSTTzRWgU2RwYiefRMosT5HkSOGR7BiGpkbUh7ItONUEWH80XOxYksbRxogB7rS0IDynzfB/dCaPHBXOm2jEKm9AGMD+SlJOYKYq8+Vs6fvPMr7RVorNgBdvZYUAqldPI0nZ6kweN8c4OTdidOIQdh5YlAGqRTY8mc9irJAxZiPA5l6nNsnkh2oX4i62rqnFCG8sLl8cuTVptgInuQJTZMqQL8g6VSzNQ5ZtOT6rVM4wq80+q4+Hs2NFjGc5argWXqzFyDUfdqEqwMxzQCSePN8LMcvR2KuW7WrPQZ+PY3MF8txDOQMsONQ1CwKmibV1YPeCGnz10BhuYxTk+dHGJG1TSiqpr50WK7x6UMPAdqttUFrqpCxAEZOr2bMBs23Rp6+o6WLHCWgOHQ1v4FwEOyoHN4n62prIaizpTRiRKHjTCioo1njl1WRdTmE84uDptXXocbix+fJVqZbXNLuXLT/Z/GfeJ1k3MjSGyaIFdbXZ9hgHjlM26DBQ0IoIDbPMtDpZtS3FjMOqBgyQ+ezWRH26QIoe4joJhJFhOpuafb9hhFgxe+YmsTs+ijzfholjaTO1U7tx15wlXYlMXeOq7o9veFSv4jXtfDfbGEKKkRPyDMCzvA5dLklOANyUEuVykqR9MIjtaAEatOYDcZpGwo2aseVYeGEsh2IimlVmqdkvsMu/tBbwyXiPEbx2bgRJGT3bTNZgpi5wqgdlQK/iJUm4bljI96PsV5o4D2firNVSn2w3uUKZRisixi0URJ4Wi1gNQDM2e0v5hBtDjWtv+JIpIPbSak1KvPYIsfyHmyPYNnKE52eBykVx22LZKTt+ZmaDaVMZ1MXvYeMVEdyxVJdvyh7YA6dIE5Wu/lFgHgKPKhlKRhat2a1HKcxXi0ak1U3NdgUNlx6BulgNWqP1xkStAmQmPdBFF1Ar266uGl44/Q6O9J1EbdzBd69NorWWYk0Hjfb5svbv5msSaKpxeWs6h1L3bvYlugCQH5ZJR4uahVXElDm3kQFC2pICOll8gHZJ5fkioQgWxJv4es53DGTSftRBTAMz+pr9SSHmmbSuqUE81/k6pnIZ3LYkhr+6rQa1MSnndyiXrJi66H4bvUuKDvPHX03j/lUJbtsCsqd+DXeUXwVYtcioFMizT7bRMng8nLMRfsfBrXVRpwCgz85ZCvFN1ZLaNsQYUMgUZaLBXpTT0Hrav8B8LdAnj+zA1gMvc5sV8dD6JP7h/jqsmR1mX45JGeXZUN08W9rCGSH89N46fO/aFMf20HniNUye2oaQOkp/Y54+UuNEDLEyQWSb4r05V7OQALUHfV7WlPxdSS42qClMgAtqZ2GOm8ZJb4zvUqwsLbW47AcLKqnxeLdgPw+jXg6Pffic8cAPrrkLD6xJYB2dzr8dmML2jgy6hgq4MG7Nuz7hor0xjNuXxXDPygRWz4lwIhmmdb6NcOfTaMcwnAhHlELKFyejiIhSzsMkeI+snW8A2u1a6USAltuYuL+Cs9LNWF+3CCdG9pqBDDiaknl5a/gdLgj7EWGwI3W76S5M4G/efwY944P4g6vvwULeEf/i5ho8vCGJTwmwf8p+25Smu5w/I4zZdTpteYmfHMHzB19Fz/EX8EjqU4Sjru9XBMCwVAHVuKSZvcmgYMrDRGwBoqlmApSmNsTwe9kV1OFu5PgAUzHOflM7Xu7dh5EQzVTo2dGYq6nbMQxwXwG9AC5S3578FH6690XsOXcYdy+5EbcsWo9Ztc1orqG5Bn0560Wa8rmhC4Zv29G3sefTd/Gz2WNo4pTbwIhjVhbCByVggeqqOxiZjKEwfyWS0STlUwGOYRfC8hkTzUzpmyF7yLtcilgkxkN7Pq6pmY+duZO8MeiSa/rafcm+VlcRNZA/LuslXox5q8PO3o/xxrkOLN83D1dR1qKGOWhK1VN5F4MM5k8Nnse+3uPoGDqNQtjDD5pzuKmGJxlXQdZQ8Q5SVGD9QTSwwh6mzHgRQ6GliLasgBtmWGc6soHKagspGYBFfUMkAv81y9FwlDM+A1+efRU+7DxFIQTvx5tm7/vjSUDgC2QxJpHP40SWOJsZ9ts/dhr7h7vAqlFMBmT2tRQNMdPbrk2WsLk+z4OerRpHAKuT+ior+fUiryGDo1GUFlzNF9cNcOn9LUCO72MRsxEV9NWyaIbD9EapeA1Wzl6CTQ3LEZ7k6UcmkzlGuU6a4lQbq5JO5c3WoFSPynthhk/REIrxMAoMMguJMHKJEPJx0ZhJizLu/DbBLeIqugLHf5MrFRKU2OCDU0A0MlTESOJKxFpXIxzjAa/gPFhB28F8GoCSqaTSJcgQbwhx/jCgpbYJN89bg6UOb9gZXV/9pZcJ+H8a1Y4blKRQRpHKlii9RKAlAi3QzJWLzKUgc6Xvrs3jW7V8180+dvMJiDKVUQ4OW1YDkOPDBfRmW+AuvBHxmiZii7M/hdmZMZyySiWq4KDA7+DKSQA5E1EueU0ihcUzF+C+eRswO8MYMUtT5tjSxZgmFVApm7emavdxYK66RjEGNlmm58gktUqis2iLlPD9uhxqhITP5SSZ1c9qEI1gJ0YK6BliQDB3I5LNixFh5OXqgKfOgRMT+8SEbiIaioJGRxi5+0ly9QI1HAojEWXolG7A+nkrce/sdWicpAkTpBnMfvi9DEpLl656ZCIMfdh9ECjMUmOGyfTtujxuiGuJxCyGqhzMkmiSR7bJkTzO94WRnXUtkvPWI5ZstM6FZ/e0l75knxi3AMPajwP9fAVelTQTIS55jKuYiqcwu34WNtHdF/hC6jd8293PS7EXo3+SPlXJGqklBE1mv/NBz3Z9VXq4PlbE5po8XL3AETiBsEy+RBJEY2IMgNGBPHoH6bhaNyLV/mUkGIyEeDTwgzNojwfLbT/7++2XtHTq+kHD+UBWWWezF+ls4uEY0ok05jbOwS3t1xgPtb17P3p1yU0RpF5Rc3Z9XcpKlhdA45V1JUQOmGaHP6rPYZ5u1uURLZ/YTTICGAPz9cVATxaD41Hk596IZPsNSNa3IRxPE1eMlqmDQPFUVeLDp6fPGYJOXxw5dAz9fQNVv0ezzMajGlONo5SsxdzmObjdvQ7pSBIvn92LruFhFBkpe/SUZT2DkbR0JmkKK0ku/H6u3H1xRsgBvoC1wsZXgIxQhnLoHyiAxz+cdoKjw0vVzUEkUUvT5JVOR4PdAFUzzMhoeATHjp6kTo7OQYe/KelEx8dHcdPN11cNwa5icMJ0+TSqGM3BiHN544hiZqoBO8/sw4HRMxiO8LUFjwAL1LezstLlium/OGxNM6HbfnlWVGU/gi/xVdsE99rQUB4TkyFkm1YhMncdEi1LkEjPRDhRR6/JqMU4lsA0p0/ioY87cfTwJ5Qu/bm4Gmv3zndw3UZuXH3/XZXk/cKaB3lh3kW1P3VOJqJxE4ItPfMx3uv/BJ8M9yEXyaPE882LMPNokM6B4oKptwMPp/O4LsYBZYIWEzyCyk4VMD5WoHPgm7mMg6maKxBavArx2cuQqGulQ5lBs6TH5Mo5NE1W2J3b46Kk4+GNXe/yl04ZLpDRnDipycvbdmDdhlW45+t3TOsiHQNTlULiDZ4TjFnra2px1dBidPScxCGGXScmeuiEphh+kZkgTdahz36LnCLuzE5hvJ/f2tIEc7mSyXlGJTm+X8yF+LVA7Ty4be1IzFyIWN1sxA0w7jd6dIVjZuUCcGYGq9X18MpLu7B9207qacFrh5qZyGULePapX2HpsnYsWbaoupdZBIGKcEYCgLo3RsJhJCMJ1CXrMKt+JtaOL8O54R6cYj4z1ocevkQenZrAZCGLPOOdGAPs0dEsTmlsRh4ev7QsRWtRqmGo1dqKcF2L8Y6xZAMilBmJBcDkTJhNOFZ9JATmr2WwzvL5Z7fxt6NTXASZHLHNa1hruGioDMGKuP7G9fjho398CUgxi1FOQrePAo8KfY+R5XfkOQLI8OeSk7xJTGQmMEFQ4yzHmEcnx8jDM4m8M9wSvhQpIk7PG+LvXFy6+VCy3rj7CMOtMPd5OMqLL/eYy4BfWSvmKAyTt6TSmuDLpa6TZ/hzyl/QPN9jM7eHb75lgOoUgNRPoR78zjdxx9du5i8f5ammJ2LkZNDMuCIFvmLIM+f4U8kCs0oBzrLMFwSe+5LgwnyvUMNjoZYTG+WNIUILcOmhXQb2Lp1WiNlhXT/wMYEzQQmYQ6shgQqb/TFdET5l+cvFt994H0/90wv8BfAhwlKfyt6cBlC9DUgqnqyJ4fY7N+GmW2/AmqtXor6hjq3Vs0fP6gMVWAHVN8Om5FdvAq8Nr6/jdFLT7XDoki4PBGjDQSmiH/M4Oku1r8qrpNUSMDkqKVs9rrRksM2joOPgUex4ZTd2vvIGzZJOxUxEAM72uQSgOpvXhMZkS9Bvt69csRgL2+ejbW4rf93YjHS6BskkzSlCJcSvPwLRhVhgy5mmLJo45K3FLd+jkFSWVlbegJBizKorXjUmppKvBBkrT/HFi8Kvvt5+BibncOKTUzy/O83vQrXfFGybVTY9Kh+XBRg0B4prVc0dq1wGHH5p9oWAKElzWxMwk3yS2KS7jVUJmc0aQ0lffGoMP1w3NCPITJAe1VEQ7J8mQPvRWIEZkO2XSXYJLtMgkhFlvJFCoUDZcq2qV0W4weq3qEelhQ8iMPuSDJfahUFlpa84/J5VAmxVq2xr1Z9G2GU+/gdWMsEUFfla8AAAAABJRU5ErkJggg==;" parent="JanNo0E4OkqzpQ1DrJZF-45" vertex="1">
          <mxGeometry x="150" width="56" height="55" as="geometry" />
        </mxCell>
        <mxCell id="JanNo0E4OkqzpQ1DrJZF-49" value="。。。" style="text;strokeColor=none;align=center;fillColor=none;html=1;verticalAlign=middle;whiteSpace=wrap;rounded=0;" parent="JanNo0E4OkqzpQ1DrJZF-45" vertex="1">
          <mxGeometry x="90" y="12.5" width="60" height="30" as="geometry" />
        </mxCell>
        <mxCell id="JanNo0E4OkqzpQ1DrJZF-64" value="业务方" style="text;strokeColor=none;align=center;fillColor=none;html=1;verticalAlign=middle;whiteSpace=wrap;rounded=0;" parent="1" vertex="1">
          <mxGeometry x="-538" width="60" height="30" as="geometry" />
        </mxCell>
        <mxCell id="JanNo0E4OkqzpQ1DrJZF-67" value="&lt;b&gt;&lt;font color=&quot;#ff0000&quot;&gt;直播长连接组件&lt;/font&gt;&lt;/b&gt;" style="text;strokeColor=none;align=center;fillColor=none;html=1;verticalAlign=middle;whiteSpace=wrap;rounded=0;" parent="1" vertex="1">
          <mxGeometry x="250" width="120" height="30" as="geometry" />
        </mxCell>
        <mxCell id="JanNo0E4OkqzpQ1DrJZF-69" value="业务方" style="text;strokeColor=none;align=center;fillColor=none;html=1;verticalAlign=middle;whiteSpace=wrap;rounded=0;" parent="1" vertex="1">
          <mxGeometry x="1030" width="60" height="30" as="geometry" />
        </mxCell>
        <mxCell id="JanNo0E4OkqzpQ1DrJZF-70" value="挂件更新(全局/多房间维度)" style="text;strokeColor=none;align=center;fillColor=none;html=1;verticalAlign=middle;whiteSpace=wrap;rounded=0;fontSize=12;fontFamily=Helvetica;fontColor=default;" parent="1" vertex="1">
          <mxGeometry x="-560" y="90" width="170" height="30" as="geometry" />
        </mxCell>
        <mxCell id="JanNo0E4OkqzpQ1DrJZF-71" value="用户进房(全局/多房间维度)" style="text;strokeColor=none;align=center;fillColor=none;html=1;verticalAlign=middle;whiteSpace=wrap;rounded=0;fontSize=12;fontFamily=Helvetica;fontColor=default;" parent="1" vertex="1">
          <mxGeometry x="-560" y="240" width="170" height="30" as="geometry" />
        </mxCell>
        <mxCell id="JanNo0E4OkqzpQ1DrJZF-72" value="直播弹幕(单房间维度)" style="text;strokeColor=none;align=center;fillColor=none;html=1;verticalAlign=middle;whiteSpace=wrap;rounded=0;fontSize=12;fontFamily=Helvetica;fontColor=default;" parent="1" vertex="1">
          <mxGeometry x="-560" y="460" width="170" height="30" as="geometry" />
        </mxCell>
        <mxCell id="JanNo0E4OkqzpQ1DrJZF-73" value="&lt;b&gt;&lt;font color=&quot;#ff3333&quot;&gt;语聊房/PK(用户维度 高优消息)&lt;/font&gt;&lt;/b&gt;" style="text;strokeColor=none;align=center;fillColor=none;html=1;verticalAlign=middle;whiteSpace=wrap;rounded=0;fontSize=12;fontFamily=Helvetica;fontColor=default;" parent="1" vertex="1">
          <mxGeometry x="-560" y="640" width="170" height="30" as="geometry" />
        </mxCell>
        <mxCell id="JanNo0E4OkqzpQ1DrJZF-74" value="grpc广播至所有comet" style="text;strokeColor=none;align=center;fillColor=none;html=1;verticalAlign=middle;whiteSpace=wrap;rounded=0;fontSize=12;fontFamily=Helvetica;fontColor=default;" parent="1" vertex="1">
          <mxGeometry x="350" y="250" width="170" height="30" as="geometry" />
        </mxCell>
        <mxCell id="JanNo0E4OkqzpQ1DrJZF-79" value="广播消息至所有房间内的客户端" style="text;strokeColor=none;align=center;fillColor=none;html=1;verticalAlign=middle;whiteSpace=wrap;rounded=0;fontSize=12;fontFamily=Helvetica;fontColor=default;" parent="1" vertex="1">
          <mxGeometry x="900" y="130" width="170" height="30" as="geometry" />
        </mxCell>
        <mxCell id="1XgvR0CaCUdwYxR7jsRi-1" value="" style="group" vertex="1" connectable="0" parent="1">
          <mxGeometry x="-50" y="560" width="280" height="70" as="geometry" />
        </mxCell>
        <mxCell id="1XgvR0CaCUdwYxR7jsRi-2" value="" style="group" vertex="1" connectable="0" parent="1XgvR0CaCUdwYxR7jsRi-1">
          <mxGeometry y="40" width="280" height="30" as="geometry" />
        </mxCell>
        <mxCell id="1XgvR0CaCUdwYxR7jsRi-3" value="" style="rounded=1;whiteSpace=wrap;html=1;fillColor=#b1ddf0;strokeColor=#10739e;" vertex="1" parent="1XgvR0CaCUdwYxR7jsRi-2">
          <mxGeometry x="240" width="40" height="30" as="geometry" />
        </mxCell>
        <mxCell id="1XgvR0CaCUdwYxR7jsRi-4" value="" style="rounded=1;whiteSpace=wrap;html=1;fillColor=#b1ddf0;strokeColor=#10739e;" vertex="1" parent="1XgvR0CaCUdwYxR7jsRi-2">
          <mxGeometry x="200" width="40" height="30" as="geometry" />
        </mxCell>
        <mxCell id="1XgvR0CaCUdwYxR7jsRi-5" value="" style="rounded=1;whiteSpace=wrap;html=1;fillColor=#b1ddf0;strokeColor=#10739e;" vertex="1" parent="1XgvR0CaCUdwYxR7jsRi-2">
          <mxGeometry width="40" height="30" as="geometry" />
        </mxCell>
        <mxCell id="1XgvR0CaCUdwYxR7jsRi-6" value="" style="rounded=1;whiteSpace=wrap;html=1;fillColor=#b1ddf0;strokeColor=#10739e;" vertex="1" parent="1XgvR0CaCUdwYxR7jsRi-2">
          <mxGeometry x="40" width="40" height="30" as="geometry" />
        </mxCell>
        <mxCell id="1XgvR0CaCUdwYxR7jsRi-7" value="" style="rounded=1;whiteSpace=wrap;html=1;fillColor=#b1ddf0;strokeColor=#10739e;" vertex="1" parent="1XgvR0CaCUdwYxR7jsRi-2">
          <mxGeometry x="80" width="40" height="30" as="geometry" />
        </mxCell>
        <mxCell id="1XgvR0CaCUdwYxR7jsRi-8" value="。。。" style="text;strokeColor=none;align=center;fillColor=none;html=1;verticalAlign=middle;whiteSpace=wrap;rounded=0;" vertex="1" parent="1XgvR0CaCUdwYxR7jsRi-2">
          <mxGeometry x="130" width="60" height="30" as="geometry" />
        </mxCell>
        <mxCell id="1XgvR0CaCUdwYxR7jsRi-9" value="&lt;font style=&quot;font-size: 15px;&quot;&gt;databus低优消息队列&lt;/font&gt;" style="text;strokeColor=none;align=center;fillColor=none;html=1;verticalAlign=middle;whiteSpace=wrap;rounded=0;" vertex="1" parent="1XgvR0CaCUdwYxR7jsRi-1">
          <mxGeometry x="70" width="150" height="40" as="geometry" />
        </mxCell>
        <mxCell id="1XgvR0CaCUdwYxR7jsRi-121" style="edgeStyle=orthogonalEdgeStyle;rounded=0;orthogonalLoop=1;jettySize=auto;html=1;" edge="1" parent="1" source="1XgvR0CaCUdwYxR7jsRi-10" target="1XgvR0CaCUdwYxR7jsRi-32">
          <mxGeometry relative="1" as="geometry" />
        </mxCell>
        <mxCell id="1XgvR0CaCUdwYxR7jsRi-122" style="edgeStyle=orthogonalEdgeStyle;rounded=0;orthogonalLoop=1;jettySize=auto;html=1;entryX=0;entryY=0.5;entryDx=0;entryDy=0;" edge="1" parent="1" source="1XgvR0CaCUdwYxR7jsRi-10" target="JanNo0E4OkqzpQ1DrJZF-24">
          <mxGeometry relative="1" as="geometry" />
        </mxCell>
        <mxCell id="1XgvR0CaCUdwYxR7jsRi-127" style="edgeStyle=orthogonalEdgeStyle;rounded=0;orthogonalLoop=1;jettySize=auto;html=1;entryX=0;entryY=0.5;entryDx=0;entryDy=0;" edge="1" parent="1" source="1XgvR0CaCUdwYxR7jsRi-10" target="JanNo0E4OkqzpQ1DrJZF-25">
          <mxGeometry relative="1" as="geometry" />
        </mxCell>
        <mxCell id="1XgvR0CaCUdwYxR7jsRi-10" value="&lt;span style=&quot;font-size: 15px;&quot;&gt;高优broadcast-job&lt;/span&gt;" style="ellipse;whiteSpace=wrap;html=1;fillColor=#e51400;strokeColor=#B20000;fontColor=#ffffff;" vertex="1" parent="1">
          <mxGeometry x="270" y="170" width="130" height="90" as="geometry" />
        </mxCell>
        <mxCell id="1XgvR0CaCUdwYxR7jsRi-13" style="edgeStyle=orthogonalEdgeStyle;rounded=0;orthogonalLoop=1;jettySize=auto;html=1;exitX=1;exitY=0.5;exitDx=0;exitDy=0;" edge="1" parent="1" source="JanNo0E4OkqzpQ1DrJZF-12" target="1XgvR0CaCUdwYxR7jsRi-10">
          <mxGeometry relative="1" as="geometry" />
        </mxCell>
        <mxCell id="1XgvR0CaCUdwYxR7jsRi-14" value="&lt;b&gt;&lt;font color=&quot;#ff3333&quot;&gt;高优必答消息&lt;/font&gt;&lt;/b&gt;" style="text;strokeColor=none;align=center;fillColor=none;html=1;verticalAlign=middle;whiteSpace=wrap;rounded=0;fontSize=12;fontFamily=Helvetica;fontColor=default;" vertex="1" parent="1">
          <mxGeometry x="-140" y="290" width="170" height="30" as="geometry" />
        </mxCell>
        <mxCell id="1XgvR0CaCUdwYxR7jsRi-16" value="低优非必答消息" style="text;strokeColor=none;align=center;fillColor=none;html=1;verticalAlign=middle;whiteSpace=wrap;rounded=0;fontSize=12;fontFamily=Helvetica;fontColor=default;" vertex="1" parent="1">
          <mxGeometry x="-130" y="520" width="170" height="30" as="geometry" />
        </mxCell>
        <mxCell id="1XgvR0CaCUdwYxR7jsRi-17" style="edgeStyle=orthogonalEdgeStyle;rounded=0;orthogonalLoop=1;jettySize=auto;html=1;exitX=1;exitY=0.5;exitDx=0;exitDy=0;" edge="1" parent="1" source="1XgvR0CaCUdwYxR7jsRi-3" target="JanNo0E4OkqzpQ1DrJZF-9">
          <mxGeometry relative="1" as="geometry" />
        </mxCell>
        <mxCell id="1XgvR0CaCUdwYxR7jsRi-32" value="&lt;span style=&quot;font-size: 15px;&quot;&gt;comet-1&lt;/span&gt;" style="ellipse;whiteSpace=wrap;html=1;fillColor=#f8cecc;strokeColor=#b85450;gradientColor=#ea6b66;" vertex="1" parent="1">
          <mxGeometry x="590" y="110" width="130" height="95" as="geometry" />
        </mxCell>
        <mxCell id="1XgvR0CaCUdwYxR7jsRi-66" style="edgeStyle=orthogonalEdgeStyle;rounded=0;orthogonalLoop=1;jettySize=auto;html=1;" edge="1" parent="1" source="1XgvR0CaCUdwYxR7jsRi-25" target="JanNo0E4OkqzpQ1DrJZF-27">
          <mxGeometry relative="1" as="geometry" />
        </mxCell>
        <mxCell id="1XgvR0CaCUdwYxR7jsRi-68" style="edgeStyle=orthogonalEdgeStyle;rounded=0;orthogonalLoop=1;jettySize=auto;html=1;" edge="1" parent="1" source="1XgvR0CaCUdwYxR7jsRi-29" target="JanNo0E4OkqzpQ1DrJZF-28">
          <mxGeometry relative="1" as="geometry" />
        </mxCell>
        <mxCell id="1XgvR0CaCUdwYxR7jsRi-71" style="edgeStyle=orthogonalEdgeStyle;rounded=0;orthogonalLoop=1;jettySize=auto;html=1;exitX=1;exitY=0.5;exitDx=0;exitDy=0;" edge="1" parent="1" source="1XgvR0CaCUdwYxR7jsRi-42" target="JanNo0E4OkqzpQ1DrJZF-27">
          <mxGeometry relative="1" as="geometry">
            <mxPoint x="860" y="195" as="sourcePoint" />
          </mxGeometry>
        </mxCell>
        <mxCell id="1XgvR0CaCUdwYxR7jsRi-72" style="edgeStyle=orthogonalEdgeStyle;rounded=0;orthogonalLoop=1;jettySize=auto;html=1;entryX=0.5;entryY=1;entryDx=0;entryDy=0;" edge="1" parent="1" source="1XgvR0CaCUdwYxR7jsRi-42" target="JanNo0E4OkqzpQ1DrJZF-29">
          <mxGeometry relative="1" as="geometry" />
        </mxCell>
        <mxCell id="1XgvR0CaCUdwYxR7jsRi-35" value="" style="group" vertex="1" connectable="0" parent="1">
          <mxGeometry x="720" y="85" width="150" height="60" as="geometry" />
        </mxCell>
        <mxCell id="1XgvR0CaCUdwYxR7jsRi-31" value="" style="group" vertex="1" connectable="0" parent="1XgvR0CaCUdwYxR7jsRi-35">
          <mxGeometry x="24" y="30" width="92" height="30" as="geometry" />
        </mxCell>
        <mxCell id="1XgvR0CaCUdwYxR7jsRi-23" value="" style="rounded=0;whiteSpace=wrap;html=1;fillColor=#e51400;fontColor=#ffffff;strokeColor=#B20000;" vertex="1" parent="1XgvR0CaCUdwYxR7jsRi-31">
          <mxGeometry y="5" width="16" height="20" as="geometry" />
        </mxCell>
        <mxCell id="1XgvR0CaCUdwYxR7jsRi-24" value="" style="rounded=0;whiteSpace=wrap;html=1;fillColor=#e51400;fontColor=#ffffff;strokeColor=#B20000;" vertex="1" parent="1XgvR0CaCUdwYxR7jsRi-31">
          <mxGeometry x="16" y="5" width="16" height="20" as="geometry" />
        </mxCell>
        <mxCell id="1XgvR0CaCUdwYxR7jsRi-25" value="" style="rounded=0;whiteSpace=wrap;html=1;fillColor=#e51400;fontColor=#ffffff;strokeColor=#B20000;" vertex="1" parent="1XgvR0CaCUdwYxR7jsRi-31">
          <mxGeometry x="76" y="5" width="16" height="20" as="geometry" />
        </mxCell>
        <mxCell id="1XgvR0CaCUdwYxR7jsRi-29" value="。。。" style="text;strokeColor=none;align=center;fillColor=none;html=1;verticalAlign=middle;whiteSpace=wrap;rounded=0;" vertex="1" parent="1XgvR0CaCUdwYxR7jsRi-31">
          <mxGeometry x="26" width="60" height="30" as="geometry" />
        </mxCell>
        <mxCell id="1XgvR0CaCUdwYxR7jsRi-34" value="&lt;b&gt;&lt;font color=&quot;#ff3333&quot;&gt;comet内部高优待发送消息通道&lt;/font&gt;&lt;/b&gt;" style="text;strokeColor=none;align=center;fillColor=none;html=1;verticalAlign=middle;whiteSpace=wrap;rounded=0;" vertex="1" parent="1XgvR0CaCUdwYxR7jsRi-35">
          <mxGeometry x="-15" y="7.5" width="180" height="30" as="geometry" />
        </mxCell>
        <mxCell id="1XgvR0CaCUdwYxR7jsRi-46" value="" style="group" vertex="1" connectable="0" parent="1">
          <mxGeometry x="730" y="180" width="150" height="50" as="geometry" />
        </mxCell>
        <mxCell id="1XgvR0CaCUdwYxR7jsRi-38" value="" style="group" vertex="1" connectable="0" parent="1XgvR0CaCUdwYxR7jsRi-46">
          <mxGeometry x="24" y="20" width="92" height="30" as="geometry" />
        </mxCell>
        <mxCell id="1XgvR0CaCUdwYxR7jsRi-39" value="" style="rounded=0;whiteSpace=wrap;html=1;" vertex="1" parent="1XgvR0CaCUdwYxR7jsRi-38">
          <mxGeometry y="5" width="16" height="20" as="geometry" />
        </mxCell>
        <mxCell id="1XgvR0CaCUdwYxR7jsRi-40" value="" style="rounded=0;whiteSpace=wrap;html=1;" vertex="1" parent="1XgvR0CaCUdwYxR7jsRi-38">
          <mxGeometry x="16" y="5" width="16" height="20" as="geometry" />
        </mxCell>
        <mxCell id="1XgvR0CaCUdwYxR7jsRi-41" value="" style="rounded=0;whiteSpace=wrap;html=1;" vertex="1" parent="1XgvR0CaCUdwYxR7jsRi-38">
          <mxGeometry x="76" y="5" width="16" height="20" as="geometry" />
        </mxCell>
        <mxCell id="1XgvR0CaCUdwYxR7jsRi-42" value="。。。" style="text;strokeColor=none;align=center;fillColor=none;html=1;verticalAlign=middle;whiteSpace=wrap;rounded=0;" vertex="1" parent="1XgvR0CaCUdwYxR7jsRi-38">
          <mxGeometry x="30" width="56" height="30" as="geometry" />
        </mxCell>
        <mxCell id="1XgvR0CaCUdwYxR7jsRi-43" value="&lt;font color=&quot;#ffffff&quot;&gt;comet内部低优待发送消息通道&lt;/font&gt;" style="text;strokeColor=none;align=center;fillColor=none;html=1;verticalAlign=middle;whiteSpace=wrap;rounded=0;" vertex="1" parent="1XgvR0CaCUdwYxR7jsRi-46">
          <mxGeometry x="-15" width="170" height="30" as="geometry" />
        </mxCell>
        <mxCell id="1XgvR0CaCUdwYxR7jsRi-73" value="" style="group" vertex="1" connectable="0" parent="1">
          <mxGeometry x="720" y="300" width="150" height="60" as="geometry" />
        </mxCell>
        <mxCell id="1XgvR0CaCUdwYxR7jsRi-74" value="" style="group" vertex="1" connectable="0" parent="1XgvR0CaCUdwYxR7jsRi-73">
          <mxGeometry x="24" y="30" width="92" height="30" as="geometry" />
        </mxCell>
        <mxCell id="1XgvR0CaCUdwYxR7jsRi-75" value="" style="rounded=0;whiteSpace=wrap;html=1;fillColor=#e51400;fontColor=#ffffff;strokeColor=#B20000;" vertex="1" parent="1XgvR0CaCUdwYxR7jsRi-74">
          <mxGeometry y="5" width="16" height="20" as="geometry" />
        </mxCell>
        <mxCell id="1XgvR0CaCUdwYxR7jsRi-76" value="" style="rounded=0;whiteSpace=wrap;html=1;fillColor=#e51400;fontColor=#ffffff;strokeColor=#B20000;" vertex="1" parent="1XgvR0CaCUdwYxR7jsRi-74">
          <mxGeometry x="16" y="5" width="16" height="20" as="geometry" />
        </mxCell>
        <mxCell id="1XgvR0CaCUdwYxR7jsRi-77" value="" style="rounded=0;whiteSpace=wrap;html=1;fillColor=#e51400;fontColor=#ffffff;strokeColor=#B20000;" vertex="1" parent="1XgvR0CaCUdwYxR7jsRi-74">
          <mxGeometry x="76" y="5" width="16" height="20" as="geometry" />
        </mxCell>
        <mxCell id="1XgvR0CaCUdwYxR7jsRi-78" value="。。。" style="text;strokeColor=none;align=center;fillColor=none;html=1;verticalAlign=middle;whiteSpace=wrap;rounded=0;" vertex="1" parent="1XgvR0CaCUdwYxR7jsRi-74">
          <mxGeometry x="26" width="60" height="30" as="geometry" />
        </mxCell>
        <mxCell id="1XgvR0CaCUdwYxR7jsRi-79" value="&lt;b&gt;&lt;font color=&quot;#ff3333&quot;&gt;comet内部高优待发送消息通道&lt;/font&gt;&lt;/b&gt;" style="text;strokeColor=none;align=center;fillColor=none;html=1;verticalAlign=middle;whiteSpace=wrap;rounded=0;" vertex="1" parent="1XgvR0CaCUdwYxR7jsRi-73">
          <mxGeometry x="-15" y="7.5" width="180" height="30" as="geometry" />
        </mxCell>
        <mxCell id="1XgvR0CaCUdwYxR7jsRi-80" value="" style="group" vertex="1" connectable="0" parent="1">
          <mxGeometry x="720" y="430" width="150" height="50" as="geometry" />
        </mxCell>
        <mxCell id="1XgvR0CaCUdwYxR7jsRi-81" value="" style="group" vertex="1" connectable="0" parent="1XgvR0CaCUdwYxR7jsRi-80">
          <mxGeometry x="24" y="20" width="92" height="30" as="geometry" />
        </mxCell>
        <mxCell id="1XgvR0CaCUdwYxR7jsRi-82" value="" style="rounded=0;whiteSpace=wrap;html=1;" vertex="1" parent="1XgvR0CaCUdwYxR7jsRi-81">
          <mxGeometry y="5" width="16" height="20" as="geometry" />
        </mxCell>
        <mxCell id="1XgvR0CaCUdwYxR7jsRi-83" value="" style="rounded=0;whiteSpace=wrap;html=1;" vertex="1" parent="1XgvR0CaCUdwYxR7jsRi-81">
          <mxGeometry x="16" y="5" width="16" height="20" as="geometry" />
        </mxCell>
        <mxCell id="1XgvR0CaCUdwYxR7jsRi-84" value="" style="rounded=0;whiteSpace=wrap;html=1;" vertex="1" parent="1XgvR0CaCUdwYxR7jsRi-81">
          <mxGeometry x="76" y="5" width="16" height="20" as="geometry" />
        </mxCell>
        <mxCell id="1XgvR0CaCUdwYxR7jsRi-85" value="。。。" style="text;strokeColor=none;align=center;fillColor=none;html=1;verticalAlign=middle;whiteSpace=wrap;rounded=0;" vertex="1" parent="1XgvR0CaCUdwYxR7jsRi-81">
          <mxGeometry x="30" width="56" height="30" as="geometry" />
        </mxCell>
        <mxCell id="1XgvR0CaCUdwYxR7jsRi-86" value="&lt;font color=&quot;#ffffff&quot;&gt;comet内部低优待发送消息通道&lt;/font&gt;" style="text;strokeColor=none;align=center;fillColor=none;html=1;verticalAlign=middle;whiteSpace=wrap;rounded=0;" vertex="1" parent="1XgvR0CaCUdwYxR7jsRi-80">
          <mxGeometry x="-15" width="170" height="30" as="geometry" />
        </mxCell>
        <mxCell id="1XgvR0CaCUdwYxR7jsRi-87" value="" style="group" vertex="1" connectable="0" parent="1">
          <mxGeometry x="720" y="530" width="150" height="60" as="geometry" />
        </mxCell>
        <mxCell id="1XgvR0CaCUdwYxR7jsRi-88" value="" style="group" vertex="1" connectable="0" parent="1XgvR0CaCUdwYxR7jsRi-87">
          <mxGeometry x="24" y="30" width="92" height="30" as="geometry" />
        </mxCell>
        <mxCell id="1XgvR0CaCUdwYxR7jsRi-89" value="" style="rounded=0;whiteSpace=wrap;html=1;fillColor=#e51400;fontColor=#ffffff;strokeColor=#B20000;" vertex="1" parent="1XgvR0CaCUdwYxR7jsRi-88">
          <mxGeometry y="5" width="16" height="20" as="geometry" />
        </mxCell>
        <mxCell id="1XgvR0CaCUdwYxR7jsRi-90" value="" style="rounded=0;whiteSpace=wrap;html=1;fillColor=#e51400;fontColor=#ffffff;strokeColor=#B20000;" vertex="1" parent="1XgvR0CaCUdwYxR7jsRi-88">
          <mxGeometry x="16" y="5" width="16" height="20" as="geometry" />
        </mxCell>
        <mxCell id="1XgvR0CaCUdwYxR7jsRi-91" value="" style="rounded=0;whiteSpace=wrap;html=1;fillColor=#e51400;fontColor=#ffffff;strokeColor=#B20000;" vertex="1" parent="1XgvR0CaCUdwYxR7jsRi-88">
          <mxGeometry x="76" y="5" width="16" height="20" as="geometry" />
        </mxCell>
        <mxCell id="1XgvR0CaCUdwYxR7jsRi-92" value="。。。" style="text;strokeColor=none;align=center;fillColor=none;html=1;verticalAlign=middle;whiteSpace=wrap;rounded=0;" vertex="1" parent="1XgvR0CaCUdwYxR7jsRi-88">
          <mxGeometry x="26" width="60" height="30" as="geometry" />
        </mxCell>
        <mxCell id="1XgvR0CaCUdwYxR7jsRi-93" value="&lt;b&gt;&lt;font color=&quot;#ff3333&quot;&gt;comet内部高优待发送消息通道&lt;/font&gt;&lt;/b&gt;" style="text;strokeColor=none;align=center;fillColor=none;html=1;verticalAlign=middle;whiteSpace=wrap;rounded=0;" vertex="1" parent="1XgvR0CaCUdwYxR7jsRi-87">
          <mxGeometry x="-15" y="7.5" width="180" height="30" as="geometry" />
        </mxCell>
        <mxCell id="1XgvR0CaCUdwYxR7jsRi-94" value="" style="group" vertex="1" connectable="0" parent="1">
          <mxGeometry x="720" y="670" width="150" height="50" as="geometry" />
        </mxCell>
        <mxCell id="1XgvR0CaCUdwYxR7jsRi-95" value="" style="group" vertex="1" connectable="0" parent="1XgvR0CaCUdwYxR7jsRi-94">
          <mxGeometry x="24" y="20" width="92" height="30" as="geometry" />
        </mxCell>
        <mxCell id="1XgvR0CaCUdwYxR7jsRi-96" value="" style="rounded=0;whiteSpace=wrap;html=1;" vertex="1" parent="1XgvR0CaCUdwYxR7jsRi-95">
          <mxGeometry y="5" width="16" height="20" as="geometry" />
        </mxCell>
        <mxCell id="1XgvR0CaCUdwYxR7jsRi-97" value="" style="rounded=0;whiteSpace=wrap;html=1;" vertex="1" parent="1XgvR0CaCUdwYxR7jsRi-95">
          <mxGeometry x="16" y="5" width="16" height="20" as="geometry" />
        </mxCell>
        <mxCell id="1XgvR0CaCUdwYxR7jsRi-98" value="" style="rounded=0;whiteSpace=wrap;html=1;" vertex="1" parent="1XgvR0CaCUdwYxR7jsRi-95">
          <mxGeometry x="76" y="5" width="16" height="20" as="geometry" />
        </mxCell>
        <mxCell id="1XgvR0CaCUdwYxR7jsRi-99" value="。。。" style="text;strokeColor=none;align=center;fillColor=none;html=1;verticalAlign=middle;whiteSpace=wrap;rounded=0;" vertex="1" parent="1XgvR0CaCUdwYxR7jsRi-95">
          <mxGeometry x="30" width="56" height="30" as="geometry" />
        </mxCell>
        <mxCell id="1XgvR0CaCUdwYxR7jsRi-100" value="&lt;font color=&quot;#ffffff&quot;&gt;comet内部低优待发送消息通道&lt;/font&gt;" style="text;strokeColor=none;align=center;fillColor=none;html=1;verticalAlign=middle;whiteSpace=wrap;rounded=0;" vertex="1" parent="1XgvR0CaCUdwYxR7jsRi-94">
          <mxGeometry x="-15" width="170" height="30" as="geometry" />
        </mxCell>
        <mxCell id="1XgvR0CaCUdwYxR7jsRi-101" style="edgeStyle=orthogonalEdgeStyle;rounded=0;orthogonalLoop=1;jettySize=auto;html=1;" edge="1" parent="1" source="1XgvR0CaCUdwYxR7jsRi-78" target="JanNo0E4OkqzpQ1DrJZF-38">
          <mxGeometry relative="1" as="geometry" />
        </mxCell>
        <mxCell id="1XgvR0CaCUdwYxR7jsRi-103" style="edgeStyle=orthogonalEdgeStyle;rounded=0;orthogonalLoop=1;jettySize=auto;html=1;" edge="1" parent="1" source="1XgvR0CaCUdwYxR7jsRi-78" target="JanNo0E4OkqzpQ1DrJZF-39">
          <mxGeometry relative="1" as="geometry" />
        </mxCell>
        <mxCell id="1XgvR0CaCUdwYxR7jsRi-104" style="edgeStyle=orthogonalEdgeStyle;rounded=0;orthogonalLoop=1;jettySize=auto;html=1;" edge="1" parent="1" source="1XgvR0CaCUdwYxR7jsRi-78" target="JanNo0E4OkqzpQ1DrJZF-40">
          <mxGeometry relative="1" as="geometry" />
        </mxCell>
        <mxCell id="1XgvR0CaCUdwYxR7jsRi-105" style="edgeStyle=orthogonalEdgeStyle;rounded=0;orthogonalLoop=1;jettySize=auto;html=1;" edge="1" parent="1" source="1XgvR0CaCUdwYxR7jsRi-84" target="JanNo0E4OkqzpQ1DrJZF-38">
          <mxGeometry relative="1" as="geometry" />
        </mxCell>
        <mxCell id="1XgvR0CaCUdwYxR7jsRi-106" style="edgeStyle=orthogonalEdgeStyle;rounded=0;orthogonalLoop=1;jettySize=auto;html=1;entryX=0.5;entryY=1;entryDx=0;entryDy=0;" edge="1" parent="1" source="1XgvR0CaCUdwYxR7jsRi-84" target="JanNo0E4OkqzpQ1DrJZF-40">
          <mxGeometry relative="1" as="geometry" />
        </mxCell>
        <mxCell id="1XgvR0CaCUdwYxR7jsRi-107" style="edgeStyle=orthogonalEdgeStyle;rounded=0;orthogonalLoop=1;jettySize=auto;html=1;" edge="1" parent="1" source="1XgvR0CaCUdwYxR7jsRi-85" target="JanNo0E4OkqzpQ1DrJZF-39">
          <mxGeometry relative="1" as="geometry" />
        </mxCell>
        <mxCell id="1XgvR0CaCUdwYxR7jsRi-108" style="edgeStyle=orthogonalEdgeStyle;rounded=0;orthogonalLoop=1;jettySize=auto;html=1;" edge="1" parent="1" source="1XgvR0CaCUdwYxR7jsRi-42" target="JanNo0E4OkqzpQ1DrJZF-28">
          <mxGeometry relative="1" as="geometry" />
        </mxCell>
        <mxCell id="1XgvR0CaCUdwYxR7jsRi-109" style="edgeStyle=orthogonalEdgeStyle;rounded=0;orthogonalLoop=1;jettySize=auto;html=1;entryX=0.5;entryY=1;entryDx=0;entryDy=0;" edge="1" parent="1" source="1XgvR0CaCUdwYxR7jsRi-29" target="JanNo0E4OkqzpQ1DrJZF-29">
          <mxGeometry relative="1" as="geometry" />
        </mxCell>
        <mxCell id="1XgvR0CaCUdwYxR7jsRi-110" style="edgeStyle=orthogonalEdgeStyle;rounded=0;orthogonalLoop=1;jettySize=auto;html=1;" edge="1" parent="1" source="1XgvR0CaCUdwYxR7jsRi-92" target="JanNo0E4OkqzpQ1DrJZF-46">
          <mxGeometry relative="1" as="geometry" />
        </mxCell>
        <mxCell id="1XgvR0CaCUdwYxR7jsRi-111" style="edgeStyle=orthogonalEdgeStyle;rounded=0;orthogonalLoop=1;jettySize=auto;html=1;" edge="1" parent="1" source="1XgvR0CaCUdwYxR7jsRi-92" target="JanNo0E4OkqzpQ1DrJZF-47">
          <mxGeometry relative="1" as="geometry" />
        </mxCell>
        <mxCell id="1XgvR0CaCUdwYxR7jsRi-112" style="edgeStyle=orthogonalEdgeStyle;rounded=0;orthogonalLoop=1;jettySize=auto;html=1;entryX=0.5;entryY=1;entryDx=0;entryDy=0;" edge="1" parent="1" source="1XgvR0CaCUdwYxR7jsRi-92" target="JanNo0E4OkqzpQ1DrJZF-48">
          <mxGeometry relative="1" as="geometry" />
        </mxCell>
        <mxCell id="1XgvR0CaCUdwYxR7jsRi-113" style="edgeStyle=orthogonalEdgeStyle;rounded=0;orthogonalLoop=1;jettySize=auto;html=1;" edge="1" parent="1" source="1XgvR0CaCUdwYxR7jsRi-99" target="JanNo0E4OkqzpQ1DrJZF-46">
          <mxGeometry relative="1" as="geometry" />
        </mxCell>
        <mxCell id="1XgvR0CaCUdwYxR7jsRi-114" style="edgeStyle=orthogonalEdgeStyle;rounded=0;orthogonalLoop=1;jettySize=auto;html=1;entryX=0.5;entryY=1;entryDx=0;entryDy=0;" edge="1" parent="1" source="1XgvR0CaCUdwYxR7jsRi-99" target="JanNo0E4OkqzpQ1DrJZF-48">
          <mxGeometry relative="1" as="geometry">
            <Array as="points">
              <mxPoint x="1148" y="705" />
            </Array>
          </mxGeometry>
        </mxCell>
        <mxCell id="1XgvR0CaCUdwYxR7jsRi-115" style="edgeStyle=orthogonalEdgeStyle;rounded=0;orthogonalLoop=1;jettySize=auto;html=1;" edge="1" parent="1" source="1XgvR0CaCUdwYxR7jsRi-99" target="JanNo0E4OkqzpQ1DrJZF-47">
          <mxGeometry relative="1" as="geometry" />
        </mxCell>
        <mxCell id="1XgvR0CaCUdwYxR7jsRi-123" value="广播消息至所有房间内的客户端" style="text;strokeColor=none;align=center;fillColor=none;html=1;verticalAlign=middle;whiteSpace=wrap;rounded=0;fontSize=12;fontFamily=Helvetica;fontColor=default;" vertex="1" parent="1">
          <mxGeometry x="900" y="210" width="170" height="30" as="geometry" />
        </mxCell>
        <mxCell id="1XgvR0CaCUdwYxR7jsRi-124" value="广播消息至所有房间内的客户端" style="text;strokeColor=none;align=center;fillColor=none;html=1;verticalAlign=middle;whiteSpace=wrap;rounded=0;fontSize=12;fontFamily=Helvetica;fontColor=default;" vertex="1" parent="1">
          <mxGeometry x="900" y="340" width="170" height="30" as="geometry" />
        </mxCell>
        <mxCell id="1XgvR0CaCUdwYxR7jsRi-125" value="广播消息至所有房间内的客户端" style="text;strokeColor=none;align=center;fillColor=none;html=1;verticalAlign=middle;whiteSpace=wrap;rounded=0;fontSize=12;fontFamily=Helvetica;fontColor=default;" vertex="1" parent="1">
          <mxGeometry x="900" y="460" width="170" height="30" as="geometry" />
        </mxCell>
        <mxCell id="1XgvR0CaCUdwYxR7jsRi-126" value="grpc广播至所有comet" style="text;strokeColor=none;align=center;fillColor=none;html=1;verticalAlign=middle;whiteSpace=wrap;rounded=0;fontSize=12;fontFamily=Helvetica;fontColor=default;" vertex="1" parent="1">
          <mxGeometry x="350" y="555" width="170" height="30" as="geometry" />
        </mxCell>
      </root>
    </mxGraphModel>
  </diagram>
</mxfile>
